<svg xmlns="http://www.w3.org/2000/svg" viewBox="-1426.218 2774 175.719 29"><defs><style>.a{fill:#2dbdb6;}.b{fill:#ed1164;}.c{fill:#f47920;}.d{fill:#faa61a;}</style></defs><g transform="translate(-1488 1508)"><g transform="translate(101.736 1269.489)"><g transform="translate(0 0)"><g transform="translate(93.175 21.513)"><rect class="a" width="42.227" height="3.997"/></g><g transform="translate(0 0)"><path class="b" d="M52.7,22.48V5.4h4.07c4.143,0,8.649.509,8.649,5.887,0,3.416-2.616,5.742-6.614,5.742a8.9,8.9,0,0,1-1.308-.073v5.6H52.7Zm4.8-9.3h.8c1.236,0,2.326-.509,2.326-2.035,0-1.236-.727-1.89-2.471-1.89H57.5Z" transform="translate(-52.7 -4.964)"/><path class="b" d="M77.9,15.984v6.4H73.1V5.373S75.426,5.3,77.97,5.3c4.288,0,7.7.8,7.7,4.8a4.764,4.764,0,0,1-3.125,4.651A3.218,3.218,0,0,1,83.784,16.2c.945,1.962,2.762,6.25,2.762,6.25h-5.16l-2.762-6.468Zm.654-6.9H77.9v3.561s.073.073.509.073c1.09,0,2.4-.218,2.4-1.817C80.877,9.661,80.15,9.079,78.551,9.079Z" transform="translate(-58.273 -4.937)"/><path class="b" d="M93.8,5.4h10.248v4H98.67v2.544h4.869v3.852H98.67v2.762h5.378v4H93.8Z" transform="translate(-63.929 -4.964)"/><path class="b" d="M119.12,10.832c0-1.381-.654-2.035-1.6-2.035s-1.6.581-1.672,1.817c-.073,1.672-.073,4.215,0,6.105.073,1.308.654,1.962,1.6,1.962a1.808,1.808,0,0,0,1.744-2.035l4.433.145c0,3.489-2.4,5.887-6.323,5.887-3.634,0-6.25-2.108-6.323-5.742q-.109-3.925,0-6.541c.145-3.707,3.2-5.6,6.468-5.6,3.343,0,6.178,1.89,6.032,5.887Z" transform="translate(-68.607 -4.8)"/><path class="b" d="M136.1,22.48h-4.8V5.4h4.8Z" transform="translate(-74.174 -4.964)"/><path class="b" d="M149.573,17.692c0-.727-.654-1.308-3.271-2.18-2.471-.8-4.506-2.253-4.506-5.233,0-3.634,2.98-5.378,6.25-5.378s6.178,1.744,6.032,5.887l-4.433.145c0-1.454-.581-2.035-1.6-2.035-.727,0-1.381.363-1.381,1.09,0,.872.509,1.308,3.271,2.253,2.616.945,4.506,2.108,4.506,5.378,0,3.2-2.689,5.16-6.25,5.16-3.416,0-6.614-1.817-6.4-5.887l4.433-.145a1.783,1.783,0,0,0,1.962,2.035C148.991,18.709,149.573,18.418,149.573,17.692Z" transform="translate(-77.039 -4.827)"/><path class="b" d="M169.476,19.427h-4.07l-.581,2.98H160.1l3.852-16.062V5.4h7.123L175,22.48h-4.942Zm-3.343-3.852h2.617l-.945-5.088-.363-2.18-.363,2.18Z" transform="translate(-82.042 -4.964)"/></g><g transform="translate(94.037 0.073)"><path class="a" d="M189.873,17.692c0-.727-.654-1.308-3.271-2.18-2.471-.8-4.506-2.253-4.506-5.233,0-3.634,2.98-5.378,6.251-5.378s6.178,1.744,6.032,5.887l-4.433.145c0-1.454-.581-2.035-1.6-2.035-.727,0-1.381.363-1.381,1.09,0,.872.509,1.308,3.271,2.253,2.616.945,4.506,2.108,4.506,5.378,0,3.2-2.689,5.16-6.25,5.16-3.416,0-6.614-1.817-6.4-5.887l4.434-.145a1.783,1.783,0,0,0,1.962,2.035C189.364,18.709,189.873,18.418,189.873,17.692Z" transform="translate(-182.085 -4.9)"/><path class="a" d="M202.8,5.4h10.248v4H207.67v2.544h4.87v3.852h-4.87v2.762h5.378v4H202.8Z" transform="translate(-187.745 -5.037)"/><path class="a" d="M225.8,15.984v6.4H221V5.373s2.326-.073,4.87-.073c4.288,0,7.7.8,7.7,4.8a4.764,4.764,0,0,1-3.125,4.651,3.219,3.219,0,0,1,1.236,1.454c.945,1.962,2.762,6.25,2.762,6.25h-5.16l-2.689-6.4h-.8Zm.654-6.9H225.8v3.561s.073.073.509.073c1.09,0,2.4-.218,2.4-1.817C228.7,9.661,228.05,9.079,226.451,9.079Z" transform="translate(-192.717 -5.009)"/></g></g></g><g transform="translate(61.782 1266)"><path class="a" d="M26.441,0H0L13.259,13.259Z"/><path class="c" d="M0,30.181H26.441L13.259,17Z" transform="translate(0 -3.741)"/><path class="d" d="M30.181,26.441V0L17,13.259Z" transform="translate(-3.741)"/><path class="b" d="M0,0V26.441L13.259,13.259Z"/></g></g></svg>