<svg xmlns="http://www.w3.org/2000/svg" viewBox="-1886.494 52 102.763 141.303"><defs><style>.a{fill:#005884;}.b{fill:#ffcb05;}</style></defs><g transform="translate(-1952)"><g transform="translate(65.506 149.677)"><path class="a" d="M319.3,107.709a6.229,6.229,0,0,0,.928.049.589.589,0,0,1,.586.391,2.048,2.048,0,0,1,.2.782,5.217,5.217,0,0,0,.147,1.221.69.69,0,0,1-.049.44c-.147.44-.244.928-.391,1.417a.529.529,0,0,1-.537.391,8.888,8.888,0,0,1-1.954-.1h-.147a6.75,6.75,0,0,1-1.71-.147,2.378,2.378,0,0,0-.586-.049c-.489.049-.977.049-1.466.147-.293.049-.586.049-.879.1a1.916,1.916,0,0,0-.879.2,1.091,1.091,0,0,1-.684.147,10.6,10.6,0,0,0-1.71.342,3.608,3.608,0,0,1-1.612.244c-.244-.049-.44.049-.684,0-.2-.049-.293-.1-.293-.293a4.216,4.216,0,0,1-.1-1.368,1.809,1.809,0,0,1,.586-1.173,3.025,3.025,0,0,0,.537-.831c.391-.586.635-1.27.977-1.905.244-.44.391-.928.635-1.368.293-.586.635-1.173.977-1.759a16.626,16.626,0,0,0,1.368-2.2,4.406,4.406,0,0,1,.684-.977,7.153,7.153,0,0,0,.44-.635c.391-.684.831-1.27,1.27-1.905.147-.244.244-.489.391-.733a7.954,7.954,0,0,1,.537-.831,3.459,3.459,0,0,0,.782-1.515,1.352,1.352,0,0,0,.049-.44.259.259,0,0,0-.293-.293h-.928c-.684.2-1.368,0-2.052.2a5.762,5.762,0,0,0-.977.2.413.413,0,0,1-.342,0c-.293-.049-.44,0-.537.244-.2.489-.537.879-.782,1.368-.049.147-.2.2-.293.244a1.929,1.929,0,0,1-1.368.244.457.457,0,0,1-.342-.244.943.943,0,0,1-.147-.489c0-.489-.147-.977-.2-1.515a3.2,3.2,0,0,1,0-.684,1.662,1.662,0,0,0,.049-.489c0-.44.1-.782.537-.928a.048.048,0,0,0,.049-.049,1.063,1.063,0,0,1,1.124-.244,1.614,1.614,0,0,0,.684,0h.342a7.893,7.893,0,0,0,1.514.1c.244,0,.489.049.733.049a13.807,13.807,0,0,0,1.417-.1,1.051,1.051,0,0,1,.391,0,5.1,5.1,0,0,0,1.221,0,5.024,5.024,0,0,1,.831-.049,15.006,15.006,0,0,0,2.589-.244,2.368,2.368,0,0,1,.831,0c.2.049.342,0,.537.049.293,0,.44.147.391.391a1.542,1.542,0,0,1-.342.928.171.171,0,0,0-.049.1c-.049.44-.44.586-.684.831a.048.048,0,0,0-.049.049,2.634,2.634,0,0,1-.782.684c-.342.1-.537.44-.831.684a7.511,7.511,0,0,0-.831.928c-.342.489-.537,1.026-.831,1.515l-.293.44a4.17,4.17,0,0,0-.635,1.221,2.291,2.291,0,0,1-.293.44c-.342.586-.635,1.124-.928,1.759a8.034,8.034,0,0,1-.684,1.075c-.147.2-.244.44-.391.635-.44.635-.928,1.27-1.368,1.905a6.253,6.253,0,0,0-.537.977,14.476,14.476,0,0,0-.733,1.515,2.757,2.757,0,0,0-.2.586.706.706,0,0,0,.537.782,5.026,5.026,0,0,0,.831.049h1.417c.244,0,.489.049.733.049a3.609,3.609,0,0,0,1.026,0,3.673,3.673,0,0,1,.733,0h.44c.2,0,.391.049.586-.147.2-.293.44-.537.342-.928a.93.93,0,0,1,.244-.928l.1-.1A1.337,1.337,0,0,1,319.3,107.709Z" transform="translate(-249.078 -69.679)"/><path class="a" d="M280.693,108.862a14.061,14.061,0,0,1-.1-1.563v-.2c0-.635-.049-1.319-.1-1.954V105a9.86,9.86,0,0,0-.049-1.71,3.287,3.287,0,0,1,.049-.977,11.978,11.978,0,0,0,.1-1.319V98.9a1.85,1.85,0,0,1,0-.733c.049-.2-.049-.342-.049-.537,0-.782,0-1.563-.049-2.3,0-.44-.049-.879-.049-1.319a1.662,1.662,0,0,0-.049-.489.438.438,0,0,1,.342-.489,3.2,3.2,0,0,1,1.661-.2c.1,0,.244.049.342,0a3.643,3.643,0,0,1,1.27.2.462.462,0,0,1,.293.537,2.759,2.759,0,0,0,0,.635,2.614,2.614,0,0,1-.733,2.052.981.981,0,0,0-.2.391,1.022,1.022,0,0,1-.2.293.864.864,0,0,0-.391.831,10.105,10.105,0,0,1-.147,1.71v.537a1.352,1.352,0,0,1-.049.44,1.016,1.016,0,0,0-.049.537,1,1,0,0,1,0,.537c-.049.293-.049.586-.1.831v.684c0,.586.1,1.124.049,1.71a4.6,4.6,0,0,0,.049,1.417,3.206,3.206,0,0,1-.049.977,2.23,2.23,0,0,0,.293,1.661l.586.879a.885.885,0,0,0,.879.489,1.281,1.281,0,0,1,.733.1.441.441,0,0,0,.244.049c.782.049,1.563.147,2.345.2a2.2,2.2,0,0,0,1.368-.1,2.531,2.531,0,0,0,1.124-1.026c.049-.049.049-.147.1-.2a1.96,1.96,0,0,0,.489-1.173c.1-.342.147-.733.244-1.075,0-.049.049-.1.049-.2a9.988,9.988,0,0,0,0-1.71,5.119,5.119,0,0,1-.049-1.221c0-.391-.049-.782-.049-1.173,0-.733-.147-1.515-.147-2.247a3.7,3.7,0,0,0,.049-.733V98.212c0-.391-.1-.831-.1-1.221,0-.049,0-.147-.049-.147-.293-.293-.489-.733-.879-.977-.2-.1-.342-.342-.489-.489a2.982,2.982,0,0,0-.635-.733.405.405,0,0,1-.147-.391c0-.147-.049-.342-.049-.489a1.559,1.559,0,0,1,.2-1.026.737.737,0,0,1,.684-.44,1.96,1.96,0,0,1,.733.147.62.62,0,0,0,.293.049,2.231,2.231,0,0,1,.977.1,1.654,1.654,0,0,1,.733.293,1.156,1.156,0,0,1,.537.928,14.656,14.656,0,0,1,0,1.466c0,.879,0,1.759.049,2.589l.147,1.905a5.875,5.875,0,0,1,0,.928,7.211,7.211,0,0,1-.049,1.026c-.049.733.1,1.417.1,2.1,0,.342-.049.684-.049,1.075a8.363,8.363,0,0,0,.049,1.563c.049.1,0,.244,0,.342a.417.417,0,0,0,0,.342.54.54,0,0,1,0,.391,3.952,3.952,0,0,0,0,1.075c0,.489.049,1.026.049,1.515a.627.627,0,0,1-.2.489,18.206,18.206,0,0,0-1.27,1.466,1.8,1.8,0,0,1-1.368.537,1.239,1.239,0,0,1-.586-.1c-.049-.049-.1,0-.2,0-.489.1-.977.1-1.466.147a5.284,5.284,0,0,1-.879,0h-.1a9.992,9.992,0,0,1-1.71,0c-.635,0-1.27,0-1.905.049a1.006,1.006,0,0,1-.733-.147.18.18,0,0,0-.147-.049.4.4,0,0,1-.489-.244,1.487,1.487,0,0,0-.391-.391.876.876,0,0,1-.244-.342,5.955,5.955,0,0,1-.342-.831v-.1A9.842,9.842,0,0,1,280.693,108.862Z" transform="translate(-235.238 -69.513)"/><path class="a" d="M243.548,51.739a.832.832,0,0,0-.049.342,1.2,1.2,0,0,1-.049.586,8.122,8.122,0,0,0-.147,1.075,1.92,1.92,0,0,0,.049.733,3.273,3.273,0,0,1,0,.977,1.978,1.978,0,0,0,0,.537,9.607,9.607,0,0,1,0,2.052c0,.2.049.44.049.635V61.95c0,.489,0,.977.049,1.466a1.008,1.008,0,0,0,.489.831,1.4,1.4,0,0,1,.586,1.368.268.268,0,0,1-.2.293,1.56,1.56,0,0,1-.684.147,4.74,4.74,0,0,1-.831-.049c-.1,0-.2-.049-.293,0a5.523,5.523,0,0,1-1.27,0,.831.831,0,0,0-.342.049.495.495,0,0,1-.586-.733c.049-.049.1-.147.147-.2a2.171,2.171,0,0,0,.391-.537.876.876,0,0,1,.342-.244c.049,0,.147-.049.2-.049a.323.323,0,0,0,.293-.342,16.565,16.565,0,0,0,.1-2.2,7.407,7.407,0,0,0-.147-1.026c-.049-.586-.1-1.221-.1-1.808,0-.733,0-1.515-.049-2.247a16.523,16.523,0,0,1,.049-2.2c.049-.537.049-1.026.049-1.563a4.81,4.81,0,0,1,.1-.831c0-.1.049-.244,0-.342a3.286,3.286,0,0,1-.049-.977,3.458,3.458,0,0,0-.2-1.563,2.235,2.235,0,0,1-.049-1.27.371.371,0,0,1,.1-.2,1.612,1.612,0,0,1,1.319-.342,2.343,2.343,0,0,1,.831.244h.049c.489.049.635.489.928.782a.151.151,0,0,1,.049.1,5.819,5.819,0,0,1,.928,1.71l1.026,1.905c.1.2.244.293.342.489.293.537.635.977.928,1.466.2.342.391.635.586.928.244.391.537.733.782,1.075a1.063,1.063,0,0,1,.244.391,3.9,3.9,0,0,0,.879,1.124c.147.1.244.1.293-.1a1.862,1.862,0,0,0,.049-.733c-.049-.489-.147-.977-.147-1.466a11.88,11.88,0,0,0,0-1.319l-.147-2.2v-.2a5.588,5.588,0,0,0,0-1.563V49.3c0-.147,0-.244-.147-.342-.1-.049-.1-.1-.147-.2-.049-.147-.2-.244-.293-.342a.781.781,0,0,1-.2-1.075.269.269,0,0,1,.244-.147,6.109,6.109,0,0,0,.928-.147c.391-.049.782,0,1.124-.049a.294.294,0,0,1,.2.049,1.49,1.49,0,0,0,.782.147.44.44,0,0,1,.244.049,1.209,1.209,0,0,1,.489.782.552.552,0,0,1-.44.635.449.449,0,0,0-.293.2.589.589,0,0,1-.244.244.37.37,0,0,0-.1.2,3.974,3.974,0,0,0-.1,1.515,5.526,5.526,0,0,1,0,1.27,11.9,11.9,0,0,1-.049,1.319,4.72,4.72,0,0,0,.049,1.173,5.584,5.584,0,0,1,0,1.563c0,.147.049.244,0,.342-.1.635.049,1.319-.049,1.954v.391a6.684,6.684,0,0,1,.1,1.417c0,.489.1.928.1,1.417a6.547,6.547,0,0,1,.049.977,5.153,5.153,0,0,0,.2,1.515.776.776,0,0,0,.391.489.47.47,0,0,1,.293.44.62.62,0,0,0,.049.293c.1.2.049.244-.1.342-.1.1-.2.147-.293.244a.519.519,0,0,1-.635.1c-.049,0-.1-.049-.147,0-.44.1-.928.049-1.368.147a2.958,2.958,0,0,1-.928,0,.739.739,0,0,1-.489-.879,2.963,2.963,0,0,1,1.026-1.417.929.929,0,0,0,.342-.537c0-.1.049-.244.049-.342a2.252,2.252,0,0,0-.049-1.27,1.069,1.069,0,0,0-.147-.244c-.293-.342-.537-.635-.831-.977a2.626,2.626,0,0,1-.489-.782,4.948,4.948,0,0,0-.684-.977,18.941,18.941,0,0,1-1.27-1.515c-.489-.635-1.026-1.124-1.466-1.759-.244-.342-.586-.684-.831-1.026a3.688,3.688,0,0,0-.537-.684c-.342-.44-.635-.831-.977-1.27a4.045,4.045,0,0,1-.342-.635C243.694,51.837,243.646,51.739,243.548,51.739Z" transform="translate(-214.704 -46.345)"/><path class="a" d="M349.238,54.812c.44,0,.977-.049,1.515-.049a7.318,7.318,0,0,1,1.075.1.932.932,0,0,0,.635-.1,3.66,3.66,0,0,0,.977-.733,1.076,1.076,0,0,0,.244-.782c.049-.635.1-1.221.147-1.857,0-.342-.049-.684-.049-1.075,0-.244-.049-.537-.049-.782a.366.366,0,0,0-.049-.244c-.1-.244-.244-.489-.342-.733a1.764,1.764,0,0,1-.147-.879.31.31,0,0,1,.244-.293,9.851,9.851,0,0,0,1.124-.342.539.539,0,0,1,.391,0,2.755,2.755,0,0,0,.586.2.441.441,0,0,1,.293.293,2,2,0,0,1,.2,1.173c-.1.782-.244,1.612-.391,2.394a3.457,3.457,0,0,0-.049.684,3.2,3.2,0,0,1,0,.684c0,.635-.1,1.27-.1,1.857a1.244,1.244,0,0,1-.1.342,2.383,2.383,0,0,0-.049.831c0,.537-.1,1.075-.147,1.612a3.465,3.465,0,0,0-.049.684c.049.928-.049,1.857-.049,2.785v.049a5,5,0,0,0,.049,1.905,3.2,3.2,0,0,1,0,.684v.2a5.047,5.047,0,0,0,.2.489c.1.2.147.342.391.391.147,0,.2.2.293.342a.735.735,0,0,1,.049.928c0,.049-.049.049-.049.1a.3.3,0,0,1-.391.244,5.312,5.312,0,0,0-.879.049,9.413,9.413,0,0,1-1.173.049.294.294,0,0,0-.2.049,1.818,1.818,0,0,1-.879.1.44.44,0,0,1-.244-.049c-.244-.1-.293-.2-.244-.44a2.752,2.752,0,0,1,.2-.586,1.389,1.389,0,0,0,.2-.586.906.906,0,0,1,.342-.586,1,1,0,0,0,.44-.782,3.7,3.7,0,0,0,.049-.733c0-.342.049-.635.049-.977,0-.635-.049-1.221-.1-1.857-.049-.489-.049-1.026-.049-1.515,0-.147-.049-.293-.049-.44a.724.724,0,0,0-.391-.586.048.048,0,0,1-.049-.049c-.293-.391-.733-.293-1.124-.293a1.076,1.076,0,0,0-.391.049,2.429,2.429,0,0,1-1.026-.049h-.244c-.049,0-.1.049-.147,0a6.158,6.158,0,0,0-1.368-.2,3.707,3.707,0,0,0-1.466.049c-.147.049-.244.1-.293.244a3.035,3.035,0,0,0-.293,1.466.953.953,0,0,1-.049.635.62.62,0,0,0-.049.293,1.683,1.683,0,0,1-.2.977.62.62,0,0,0-.049.293,13.72,13.72,0,0,1,.049,1.417V61.9a1.356,1.356,0,0,0,0,.879,3.19,3.19,0,0,1,0,.684,1.661,1.661,0,0,0,.049.489.488.488,0,0,0,.2.244c.391.147.489.537.684.831.2.244-.1.782-.489.831-.2,0-.342.049-.537.049a7.36,7.36,0,0,0-1.466.049c-.049,0-.147.049-.2,0-.391-.147-.782-.1-1.173-.244a.258.258,0,0,1-.2-.342,1.9,1.9,0,0,1,.293-.928,1.066,1.066,0,0,0,.147-.244.324.324,0,0,1,.244-.2c.2-.049.2-.147.2-.293V61.261a11.888,11.888,0,0,1,0-1.319c0-.489,0-.977.049-1.466a9.408,9.408,0,0,0,.049-1.173c0-.342.1-.684.1-1.075a12.866,12.866,0,0,1,.1-1.368,11.819,11.819,0,0,1,.147-1.221,1.351,1.351,0,0,1,.049-.44c0-.1.049-.2,0-.244a2.371,2.371,0,0,1,0-.831,11.912,11.912,0,0,0,.049-1.319c0-.1.049-.2.049-.293a10.064,10.064,0,0,0,0-2.1,9.011,9.011,0,0,0-.2-1.124c-.049-.2,0-.244.2-.342a1.352,1.352,0,0,1,.635-.147,2.766,2.766,0,0,1,.879.147,2.452,2.452,0,0,0,.586.1.57.57,0,0,1,.537.342,1.035,1.035,0,0,1,0,.928,9.761,9.761,0,0,0-.244,1.27,12.713,12.713,0,0,0-.244,1.905,7.456,7.456,0,0,0-.147,1.466,3.025,3.025,0,0,0,.342.928c.2.1.293.293.44.44a1.025,1.025,0,0,0,.537.2A2.447,2.447,0,0,0,349.238,54.812Z" transform="translate(-267.19 -46.242)"/><path class="a" d="M373.3,59.11c-.049-.733-.049-1.368-.1-2a.619.619,0,0,1,.049-.293c.1-.342.1-.733.2-1.075.1-.537.049-1.075.1-1.612a6.912,6.912,0,0,1,.1-1.417c.049-.342.1-.684.147-1.075a3.159,3.159,0,0,1,.2-.977,2.381,2.381,0,0,1,.147-.342,7.123,7.123,0,0,1,.831-1.466,4.605,4.605,0,0,1,.489-.489,5.682,5.682,0,0,0,.977-.879c.1-.049.147-.147.244-.2a2.049,2.049,0,0,0,.684-.44c.147-.147.342-.147.586-.2a1.277,1.277,0,0,0,.391-.147,2.534,2.534,0,0,1,1.466-.147c.293.049.537.1.782.147.1,0,.147.049.244.049a.982.982,0,0,0,.635.2.422.422,0,0,1,.293.147c.342.244.635.537.928.782a1.172,1.172,0,0,1,.537.733c0,.049.1.1.147.147a2.686,2.686,0,0,1,.342.44,3.536,3.536,0,0,0,.537.928.18.18,0,0,1,.049.147,1.165,1.165,0,0,0,.293.537l.049.049a5.413,5.413,0,0,1,.586,1.466,2.451,2.451,0,0,0,.1.586,1.9,1.9,0,0,1,.1.733,4.336,4.336,0,0,0,.049,1.124,4.851,4.851,0,0,1-.244,1.466,2.151,2.151,0,0,0-.1.782,9.446,9.446,0,0,1-.293,2c-.049.2-.1.44-.147.684a1.593,1.593,0,0,1-.2.635c-.1.293-.147.586-.244.879-.147.391-.293.831-.44,1.27-.1.342-.293.684-.391,1.026-.049.147-.1.244-.147.391a1.464,1.464,0,0,1-.2.391,2.526,2.526,0,0,0-.293.635,1.265,1.265,0,0,1-.342.537,1.153,1.153,0,0,0-.391.44.105.105,0,0,1-.1.1,10.971,10.971,0,0,1-1.319.635,6.013,6.013,0,0,1-1.857.2,6.523,6.523,0,0,0-.977,0,2.223,2.223,0,0,1-1.466-.391c-.049-.049-.147-.1-.2-.147a1.358,1.358,0,0,1-.586-.586,3.273,3.273,0,0,0-.537-.879c-.049-.049-.049-.1-.1-.147a5.619,5.619,0,0,0-.586-1.221,4.933,4.933,0,0,1-.342-.733,2.981,2.981,0,0,1-.147-.635,8.077,8.077,0,0,1-.293-1.026A12.59,12.59,0,0,1,373.3,59.11Zm9.527-5.032a6.356,6.356,0,0,0-.293-2.15,11.354,11.354,0,0,1-.244-1.368,1.439,1.439,0,0,0-.489-.879,9.373,9.373,0,0,1-.684-.733c-.049-.049-.1-.147-.2-.147-.2,0-.342-.1-.537-.049a.218.218,0,0,1-.244,0c-.44-.244-.879,0-1.319.049-.2.2-.489.293-.733.489-.391.342-.684.782-1.026,1.124a2.975,2.975,0,0,0-.586.733c-.049.1-.147.147-.2.2-.2.147-.391.342-.391.537a2.141,2.141,0,0,1-.342.928,5.933,5.933,0,0,0-.489,1.759c-.049.391-.049.733-.1,1.124a3.952,3.952,0,0,0,0,1.075,3.288,3.288,0,0,1,.049.977c-.049.489-.049.977-.049,1.466a4.574,4.574,0,0,0,.293,1.417c.2.489.489.977.684,1.466.049.1.147.2.2.293a4.055,4.055,0,0,0,.733.831c.147.147.2.342.391.44.293.244.635.44.928.684a1.2,1.2,0,0,0,.879.293,1.824,1.824,0,0,0,1.514-.586,2.028,2.028,0,0,0,.586-.977,4.127,4.127,0,0,1,.244-.831,12.974,12.974,0,0,0,.586-1.808c.1-.293.147-.635.244-.928a8.283,8.283,0,0,0,.293-1.515c.1-.733.049-1.515.147-2.247A6.374,6.374,0,0,0,382.825,54.077Z" transform="translate(-282.7 -45.996)"/><path class="a" d="M317.959,51.363h0a12.768,12.768,0,0,1,0,1.368,6.547,6.547,0,0,1-.049.977,4.29,4.29,0,0,0-.049,1.368c0,.244.049.537.049.782-.049.831.1,1.71.049,2.54,0,.44-.049.879-.049,1.319.049.684.049,1.368.147,2,.049.537.1,1.075.1,1.612a1.386,1.386,0,0,0,.2.635,4.072,4.072,0,0,0,.391.586,1.516,1.516,0,0,1,.44.879.627.627,0,0,1-.44.782.953.953,0,0,1-.635.049,4.338,4.338,0,0,0-1.124-.049,2.053,2.053,0,0,1-1.27-.391.612.612,0,0,1-.2-.831c.147-.2.244-.44.489-.537a.33.33,0,0,0,.2-.293,4.241,4.241,0,0,0,.244-1.368v-.1a6.236,6.236,0,0,0-.049-1.905v-.684a2.351,2.351,0,0,0,0-.586,5.912,5.912,0,0,1-.049-.928,4.942,4.942,0,0,0-.147-.831,10.072,10.072,0,0,1-.049-2.1,8.618,8.618,0,0,0,0-1.124c0-.489,0-.977.049-1.466a4.922,4.922,0,0,0-.049-1.466,9.413,9.413,0,0,1,.049-1.173V49.262a.694.694,0,0,0-.1-.293,1.49,1.49,0,0,1,.1-1.612.327.327,0,0,1,.391-.147,2.041,2.041,0,0,1,.489.2,1.8,1.8,0,0,0,.684.342,2.561,2.561,0,0,1,.928.537.861.861,0,0,1,.44.635c0,.049,0,.049.049.1a4.48,4.48,0,0,1,.44,1.124,4.933,4.933,0,0,0,.342.733c.2.293.342.635.586.977A23.315,23.315,0,0,1,321.721,54c.1.2.244.342.342.537a2.617,2.617,0,0,1,.244.537,1.259,1.259,0,0,0,.391.635,11.373,11.373,0,0,1,1.319,1.71c.244.489.586.928.879,1.417a.729.729,0,0,1,.147.342c.049.2.244.342.342.537.1.1.2.1.244-.049,0-.049.049-.1.049-.147-.049-.635-.049-1.27-.147-1.905-.1-.537-.1-1.075-.147-1.612a3.225,3.225,0,0,1,.049-.684,3.225,3.225,0,0,0-.049-.684,6.87,6.87,0,0,1,0-1.417,4.592,4.592,0,0,0,0-1.417,3.7,3.7,0,0,1,.049-.733,3.271,3.271,0,0,0,0-.977,3.2,3.2,0,0,1,0-.684.679.679,0,0,0-.586-.635,1.463,1.463,0,0,1-.488-.2.492.492,0,0,1-.293-.537c.049-.244.1-.489.342-.586a2.049,2.049,0,0,1,1.075-.244,1.506,1.506,0,0,0,.489-.049.833.833,0,0,1,.489,0,2.42,2.42,0,0,0,.831.1,1.341,1.341,0,0,1,.635.1.366.366,0,0,1,.244.391c.049.147-.1.244-.2.293a3.287,3.287,0,0,0-.537.342c-.293.2-.342.537-.586.782a.62.62,0,0,0-.049.293c.049.635.049,1.27.147,1.905a1.637,1.637,0,0,1,0,.489c.049,1.124.147,2.2.147,3.322,0,.586.049,1.173.1,1.759a11.888,11.888,0,0,0,0,1.319,9.686,9.686,0,0,0,.147,1.71,2.421,2.421,0,0,1,0,1.026,6.876,6.876,0,0,0-.049.977,7.458,7.458,0,0,1-.147,1.466,7.984,7.984,0,0,0-.1,1.075.294.294,0,0,1-.049.2.56.56,0,0,0-.049.489.4.4,0,0,1-.049.342,2.3,2.3,0,0,1-.293.44.367.367,0,0,1-.635,0c-.147-.244-.391-.44-.44-.733a.62.62,0,0,1-.049-.293,1.352,1.352,0,0,0-.244-.782,2.983,2.983,0,0,1-.342-.684c-.2-.342-.391-.733-.586-1.075a2.988,2.988,0,0,1-.342-.684,5.583,5.583,0,0,0-.733-1.417c-.049-.049-.049-.1-.1-.147-.147-.44-.44-.879-.586-1.319a1.84,1.84,0,0,0-.44-.733,1.063,1.063,0,0,1-.244-.391,2.257,2.257,0,0,0-.44-.733,4.254,4.254,0,0,1-.537-.879c-.2-.342-.342-.684-.537-1.026-.049-.049-.049-.1-.1-.147a4.585,4.585,0,0,0-.684-1.27,1.983,1.983,0,0,1-.244-.44,5.688,5.688,0,0,0-1.172-1.661l-.147-.147Z" transform="translate(-253.157 -46.409)"/><path class="a" d="M227.574,56.126a11.174,11.174,0,0,0,.1,1.221c0,.635.049,1.27.049,1.857v.44c0,.1-.049.244,0,.342a2.862,2.862,0,0,1-.2,1.417l-.147.586a.868.868,0,0,1-.2.489,5.335,5.335,0,0,0-.293.537.657.657,0,0,1-.293.342,9.944,9.944,0,0,0-1.221,1.27,1.022,1.022,0,0,1-.293.2,3.733,3.733,0,0,0-.537.391,1.371,1.371,0,0,1-.684.489.37.37,0,0,0-.2.1,1.806,1.806,0,0,1-1.026.293h-.586a.62.62,0,0,1-.293-.049,8.939,8.939,0,0,1-2.443-1.27,8.107,8.107,0,0,1-.684-.635l-.049-.049a2.814,2.814,0,0,1-1.075-1.515,6.044,6.044,0,0,1-.489-1.417,8.092,8.092,0,0,0-.293-1.026c0-.049-.049-.147-.049-.2a.627.627,0,0,0-.2-.489.179.179,0,0,1-.049-.147,5.383,5.383,0,0,0-.1-.879,1.076,1.076,0,0,0-.049-.391,4.115,4.115,0,0,1-.2-1.319.619.619,0,0,0-.049-.293,2.1,2.1,0,0,1-.1-1.221A9.036,9.036,0,0,0,216,54.074v-.2c.2-.537.342-1.124.537-1.661.147-.391.293-.831.44-1.221.147-.342.342-.684.537-1.075a12.042,12.042,0,0,1,1.075-1.661l.147-.147c.2-.2.489-.293.635-.586.391-.2.684-.537,1.173-.586a2.9,2.9,0,0,1,1.124,0c.2.049.391,0,.586.049a3.422,3.422,0,0,1,.684.147.37.37,0,0,1,.2.1,1.393,1.393,0,0,0,.684.391.622.622,0,0,1,.44.342c.147.2.391.342.537.537a1.521,1.521,0,0,1,.342.44c.049.147.2.244.293.391a11.771,11.771,0,0,1,1.221,2.785c.147.489.244.977.44,1.466a2.45,2.45,0,0,1,.1.586,13.4,13.4,0,0,0,.244,1.368A.819.819,0,0,1,227.574,56.126Zm-2.54-1.173v-.391a4.805,4.805,0,0,0-.391-2.052c-.1-.244-.244-.44-.342-.635a2.9,2.9,0,0,0-1.221-1.319l-.147-.147a1.086,1.086,0,0,0-.635-.391l-1.026-.293a1.469,1.469,0,0,0-1.417.147.877.877,0,0,1-.342.244.979.979,0,0,0-.489.586c-.049.049-.049.147-.1.2a3.412,3.412,0,0,0-.391.977,10.3,10.3,0,0,0-.244,1.71,9.992,9.992,0,0,0,0,1.71,7.4,7.4,0,0,1,.1,1.466,6.327,6.327,0,0,0,.2,1.905,3.806,3.806,0,0,1,.2,1.026,2.116,2.116,0,0,0,.049.244c.049.293.2.537.244.831a3.49,3.49,0,0,0,.782,1.661,2.88,2.88,0,0,0,2.687.879c.1,0,.2-.1.293-.1a2.037,2.037,0,0,0,1.173-.44,1.715,1.715,0,0,1,.391-.244,1.292,1.292,0,0,0,.684-.831,1.076,1.076,0,0,0,.049-.391,5.008,5.008,0,0,0,.2-.684,12.8,12.8,0,0,0-.049-1.368,1.627,1.627,0,0,1-.049-.684,11.519,11.519,0,0,0-.049-2.247A5.874,5.874,0,0,1,225.034,54.953Z" transform="translate(-202.248 -46.286)"/><path class="a" d="M200.4,102.743c.049.44.049.928.1,1.368a2.364,2.364,0,0,1-.147,1.173,1.96,1.96,0,0,0-.147.733,8.939,8.939,0,0,1-.293,1.221c-.1.342-.2.635-.293.977a1.736,1.736,0,0,1-.2.44,1.514,1.514,0,0,0-.293.635,7.68,7.68,0,0,1-.44,1.124,3.345,3.345,0,0,1-.831,1.026c-.049.049-.1.049-.1.1-.2.44-.684.44-1.075.635-.1.049-.244.049-.342.1a7.214,7.214,0,0,1-1.417.586c-.1.049-.147.049-.2.1a1.053,1.053,0,0,1-.831.244c-.244,0-.44.049-.684.049a.179.179,0,0,0-.147.049,3.226,3.226,0,0,1-1.368.44,14.1,14.1,0,0,1-1.417.2.573.573,0,0,1-.537-.244.962.962,0,0,1-.1-.831,15.537,15.537,0,0,0,.489-1.612,1.713,1.713,0,0,1,.293-.684,1.587,1.587,0,0,0,.293-1.319,9.76,9.76,0,0,1-.1-1.71c-.049-.489.049-.977.049-1.466a1.239,1.239,0,0,0-.1-.586c0-.049-.049-.147-.049-.2a5.1,5.1,0,0,1,0-1.221v-.342a2.371,2.371,0,0,1,0-.831,6.55,6.55,0,0,0,0-1.954,2.354,2.354,0,0,1,0-.586,5.313,5.313,0,0,0-.049-.879,4.281,4.281,0,0,1,0-1.368v-.049a3.644,3.644,0,0,0-.2-1.27c-.049-.1-.1-.147-.147-.244a1.249,1.249,0,0,1-.1-1.466.7.7,0,0,0,.1-.293,1.723,1.723,0,0,1,.391-.635.851.851,0,0,1,.684-.244h1.368a9,9,0,0,1,1.221.244,14.682,14.682,0,0,1,1.563.537c.635.244,1.221.489,1.857.782.147.1.244.244.391.342a3.007,3.007,0,0,1,.977.782,6.374,6.374,0,0,1,.684,1.27l.147.44a4.226,4.226,0,0,1,.342.831.778.778,0,0,0,.244.489.366.366,0,0,1,.049.244,2.765,2.765,0,0,0,.147.879c.1.293.049.586.147.831C200.4,102.157,200.4,102.45,200.4,102.743Zm-1.905-.2a1.281,1.281,0,0,0-.1-.733c-.049-.049,0-.147-.049-.2a3.028,3.028,0,0,0-.586-1.417l-.049-.049c-.147-.342-.44-.635-.586-.977a2.015,2.015,0,0,0-.489-.635,2.685,2.685,0,0,0-.44-.342,7.8,7.8,0,0,0-1.124-.489l-.293-.147c-.342-.147-.586-.391-.977-.391a.37.37,0,0,1-.2-.1c-.244-.2-.44-.244-.684-.049-.293.2-.489.44-.391.782a1.662,1.662,0,0,1,.049.489,6.677,6.677,0,0,0,0,1.71v.049a3.955,3.955,0,0,0,0,1.075,2.378,2.378,0,0,1-.049.586c0,.049-.049.1-.049.147.049.489.049.977.147,1.466a1.076,1.076,0,0,1,.049.391c.049,1.026-.049,2-.049,2.98,0,.537,0,1.075.049,1.661a18.814,18.814,0,0,0,.391,2.394c0,.049.049.1.049.147a.7.7,0,0,0,.586.44,2,2,0,0,0,.928-.049,1.528,1.528,0,0,0,.489-.244.787.787,0,0,1,.342-.2,3.274,3.274,0,0,0,.879-.342,1.332,1.332,0,0,0,.733-.635,2.256,2.256,0,0,1,.44-.733,3.412,3.412,0,0,0,.391-.977,9.887,9.887,0,0,0,.44-1.612c.049-.342.1-.684.147-1.075a5.506,5.506,0,0,0,.147-.879,1.281,1.281,0,0,1,.1-.733.149.149,0,0,0,0-.2A4.182,4.182,0,0,1,198.49,102.547Z" transform="translate(-188.797 -70.331)"/><path class="a" d="M217.5,98.828a10.187,10.187,0,0,1,0,1.221,9.64,9.64,0,0,1-.2,1.71.589.589,0,0,0,.586.782c.489.049,1.026.049,1.515.049a.727.727,0,0,0,.733-.342.048.048,0,0,1,.049-.049c.2-.147.342-.44.635-.293a1,1,0,0,1,.586.733,4.594,4.594,0,0,1,0,1.417.693.693,0,0,1-.391.684.786.786,0,0,1-1.026-.293c-.2-.391-.293-.44-.733-.342a4.9,4.9,0,0,1-1.172.2c-.391.049-.586.244-.537.635s0,.782.049,1.173a2.687,2.687,0,0,1-.1,1.075,9.038,9.038,0,0,0-.1,2v1.075a2.052,2.052,0,0,0,.293,1.026.879.879,0,0,0,.44.293,3.16,3.16,0,0,0,1.515.147c.537-.1,1.124-.1,1.661-.244.293-.1.537-.2.782-.293.2-.049.244-.244.293-.391a.671.671,0,0,1,.244-.391c.44-.391.733-.293,1.026.147a3.916,3.916,0,0,1,.537,1.954c0,.1.049.2.049.293a.715.715,0,0,1-.635.879,1.089,1.089,0,0,1-.684,0,3.719,3.719,0,0,0-1.026-.147,5.1,5.1,0,0,0-1.221,0,1.353,1.353,0,0,1-.44-.049,3.7,3.7,0,0,0-1.27-.049,2.656,2.656,0,0,1-.879,0,4.316,4.316,0,0,0-1.368.1c-.147.049-.293.049-.489.1-.293.049-.586,0-.831.049a1.167,1.167,0,0,1-.684-.244c-.049-.049-.1-.1-.1-.147a1.079,1.079,0,0,1,0-.782c.049-.049.049-.147.1-.2a1.575,1.575,0,0,0,.293-1.026,3.955,3.955,0,0,0,0-1.075,3.7,3.7,0,0,1,.049-.733,7.215,7.215,0,0,0-.049-1.026,3.043,3.043,0,0,1,.049-.928,3.833,3.833,0,0,0,.1-1.075,11.433,11.433,0,0,1,.147-1.857c.049-.2,0-.391.049-.586a4.922,4.922,0,0,1,.147-1.221,4.565,4.565,0,0,0,.1-1.124c0-.928.049-1.857.049-2.785a2.494,2.494,0,0,0-.147-1.026.531.531,0,0,1-.049-.244,4.188,4.188,0,0,0-.244-1.319c-.049-.1,0-.2,0-.293a9.481,9.481,0,0,1,.1-1.173.53.53,0,0,1,.2-.44c.1-.049.1-.147.1-.244a.589.589,0,0,1,.537-.391A11.734,11.734,0,0,1,217.5,93.6c.831,0,1.612.1,2.443.147s1.661.244,2.541.342h.293c.1,0,.244-.049.342-.049s.244-.049.342,0c.293.2.684.049.977.293a.369.369,0,0,1,.2.342v.293a.881.881,0,0,0,.1.489,1.49,1.49,0,0,1-.244,1.661,2.8,2.8,0,0,1-.782.733.92.92,0,0,1-.733.147c-.391-.049-.684-.2-.635-.635,0-.1-.049-.2-.049-.342a1.1,1.1,0,0,0-.977-.831,2.855,2.855,0,0,0-.928-.1c-.635.049-1.27.147-1.905.244-.049,0-.1.049-.2.049a.323.323,0,0,0-.293.342,2,2,0,0,1-.049.537,2.8,2.8,0,0,1-.2.684A1.281,1.281,0,0,0,217.5,98.828Z" transform="translate(-201.555 -70.178)"/><path class="a" d="M193.159,56.036a7.359,7.359,0,0,1-1.466-.049c-.293-.049-.342,0-.44.293a11.586,11.586,0,0,0-.147,2.247c0,.537,0,1.075.049,1.563,0,.684.049,1.368.049,2.052a.587.587,0,0,0,.1.391,1.445,1.445,0,0,1,.1.489,1.135,1.135,0,0,0,.44.928.675.675,0,0,1,.2.782v.049c-.2.44-.147.44-.635.44h-.244a1.626,1.626,0,0,1-.684.049c-.342-.049-.684.049-1.075,0a4.2,4.2,0,0,0-.782.049.6.6,0,0,1-.537-.342.841.841,0,0,1-.1-.586.408.408,0,0,1,.293-.44,1.557,1.557,0,0,0,.782-1.026,3.658,3.658,0,0,0,.1-1.026c.049-.342.049-.684.1-1.026,0-.489.1-.928.1-1.368a8.365,8.365,0,0,1,.049-1.563c.049-.44,0-.831.049-1.27a6.228,6.228,0,0,0-.1-1.368,3.42,3.42,0,0,1,0-1.221,8.885,8.885,0,0,0,0-1.612,6.576,6.576,0,0,1,.1-1.954,5.956,5.956,0,0,0,.049-1.857,2.379,2.379,0,0,0-.049-.586c-.049-.147-.1-.244-.244-.293-.1,0-.147-.1-.2-.147-.147-.2-.342-.44-.489-.635a.7.7,0,0,1,.44-1.075c.293-.049.586-.147.879-.2a.3.3,0,0,1,.342.049.966.966,0,0,0,.537.1,3.771,3.771,0,0,0,.733-.1,3.226,3.226,0,0,1,.684-.049,2.115,2.115,0,0,0,.782-.049,7.856,7.856,0,0,1,1.515.049c.1,0,.2.1.342.1a8.112,8.112,0,0,0,1.075.147,1.114,1.114,0,0,1,.537.147c.1.049.2.049.293.1a.294.294,0,0,1,.2.049,8.072,8.072,0,0,1,1.27.684,3.645,3.645,0,0,0,.586.342,1.753,1.753,0,0,1,.733.831c.2.391.293.782.489,1.173a3.578,3.578,0,0,1,.391,1.221,5.532,5.532,0,0,1-.293,1.759,7.789,7.789,0,0,1-.586,1.319,4.9,4.9,0,0,1-.782.977,2.315,2.315,0,0,1-.928.586c-.2.049-.293.2-.489.244a9.948,9.948,0,0,1-1.075.44,5.11,5.11,0,0,1-.831.2,7.343,7.343,0,0,1-.977.1A6.038,6.038,0,0,0,193.159,56.036Zm-.537-1.417a1.98,1.98,0,0,0,.537,0c.537-.049,1.124-.1,1.661-.147a1.316,1.316,0,0,0,.733-.244,1.463,1.463,0,0,1,.489-.2,1.552,1.552,0,0,0,.44-.147c.244-.2.537-.342.782-.537a1.67,1.67,0,0,0,.684-1.515,3.165,3.165,0,0,1,.1-.977,1.2,1.2,0,0,0-.049-.586,2.139,2.139,0,0,0-.684-1.075c-.049-.049-.1-.049-.1-.1a2.674,2.674,0,0,0-1.368-.831,10.609,10.609,0,0,0-1.173-.342,8.415,8.415,0,0,0-1.905-.2,1.153,1.153,0,0,0-.782.342c-.049.049-.1.147-.147.2a.658.658,0,0,0-.244.586,11.042,11.042,0,0,1-.049,1.27c-.049.586.049,1.124,0,1.71v.1a7.863,7.863,0,0,1,0,1.857c0,.147-.049.244.049.342a1,1,0,0,0,.782.44C192.377,54.619,192.475,54.619,192.621,54.619Z" transform="translate(-187.961 -45.659)"/><path class="a" d="M273.423,47.386c1.026.049,2.052.049,3.078.049a9.443,9.443,0,0,0,1.661-.049,6.547,6.547,0,0,1,.977.049h.586a7.215,7.215,0,0,1,1.026.049c.244.049.489-.049.733,0a5.286,5.286,0,0,0,.879,0,4.72,4.72,0,0,1,1.173.049.929.929,0,0,1,.879.733,1.1,1.1,0,0,1,.049.684c-.049.1,0,.2,0,.293a1.006,1.006,0,0,1-.1.831,1.686,1.686,0,0,1-.391.44,1.164,1.164,0,0,1-.684.147.772.772,0,0,1-.733-.635.983.983,0,0,0-.2-.391.55.55,0,0,0-.391-.244,5.262,5.262,0,0,0-1.954-.049c-.1,0-.244.049-.342,0a.716.716,0,0,0-.537.1,2.125,2.125,0,0,1-.342.2.588.588,0,0,0-.342.489,11.978,11.978,0,0,0-.1,1.319,1.506,1.506,0,0,1-.049.489,1.257,1.257,0,0,0,.049.733,1.662,1.662,0,0,1,.049.489v.44a3.729,3.729,0,0,1-.1,1.27,12.808,12.808,0,0,0-.049,1.368,7.2,7.2,0,0,1,0,1.026V57.3c.1.782.049,1.563.147,2.345v.293a4.323,4.323,0,0,0,0,1.124,5.884,5.884,0,0,1,0,.928,9.481,9.481,0,0,0,.1,1.173.294.294,0,0,0,.049.2c.2.293.293.635.489.928a1.686,1.686,0,0,0,.44.391,2.633,2.633,0,0,1,.782.684.294.294,0,0,1,.049.2v.049c-.147.586-.293.684-.879.782a5.384,5.384,0,0,1-.879.1.294.294,0,0,0-.2.049c-.391.293-.782.1-1.173,0a3.417,3.417,0,0,0-1.221,0c-.1,0-.147.049-.244-.049a.359.359,0,0,0-.293-.1.254.254,0,0,1-.2-.1,1.261,1.261,0,0,1-.147-1.026.426.426,0,0,1,.391-.293c.2-.049.342-.1.537-.147a.88.88,0,0,0,.635-.831c0-.342-.049-.684-.049-.977a11.734,11.734,0,0,0-.147-1.368c-.049-.831-.1-1.612-.147-2.443a6.225,6.225,0,0,0-.049-.928,3.7,3.7,0,0,0-.049-.733c-.049-.244,0-.537-.049-.782a9.408,9.408,0,0,1-.049-1.173,11.986,11.986,0,0,1,.1-1.319,1.637,1.637,0,0,0,0-.489,8.9,8.9,0,0,1-.049-1.612c.049-.684-.1-1.368-.049-2.052a.646.646,0,0,0-.586-.684,1.794,1.794,0,0,0-.879-.049c-.147.049-.342-.049-.489-.049a2.786,2.786,0,0,1-.635.049,1.662,1.662,0,0,1-.489-.049.62.62,0,0,0-.293-.049c-.293.049-.342.1-.391.391a4.122,4.122,0,0,1-.244.831,1.059,1.059,0,0,1-1.026.537.415.415,0,0,1-.342-.342,7.589,7.589,0,0,1-.2-1.026,4.913,4.913,0,0,1,0-1.466c0-.147.1-.2.2-.293a1.715,1.715,0,0,1,.879-.293A5.411,5.411,0,0,1,273.423,47.386Z" transform="translate(-230.167 -46.535)"/><path class="a" d="M251.907,112.169a5.383,5.383,0,0,1,.1-.879c.049-.44.147-.831.2-1.221.1-.342.1-.684.2-1.026a1.662,1.662,0,0,0,.049-.489V106.16a13.7,13.7,0,0,1,0-1.417c.049-.293,0-.586.049-.928a3.7,3.7,0,0,0-.049-.733,7.564,7.564,0,0,1-.049-1.075c0-.342-.049-.684-.049-1.026,0-.147-.1-.293-.1-.44a4.956,4.956,0,0,1-.1-1.221,8.365,8.365,0,0,0-.049-1.563c0-.1.049-.244.049-.342-.049-.391-.1-.782-.147-1.221,0-.049-.049-.1-.1-.147-.049-.1-.147-.2-.2-.293a1.237,1.237,0,0,1-.2-1.221c.049-.1.049-.147.1-.244.2-.586.44-.782,1.124-.879.2-.049.44,0,.635-.147a.218.218,0,0,1,.244,0,5.726,5.726,0,0,1,.537.244c.049.049.1.1.1.147a2.452,2.452,0,0,1,.1.586,4.737,4.737,0,0,1,.049.831c0,.2-.049.342-.049.537v.733a7.564,7.564,0,0,0-.049,1.075,6.584,6.584,0,0,0,.1,1.71v.1c-.1.537.1,1.075,0,1.612v.342a.881.881,0,0,1-.049.489,4.706,4.706,0,0,0,0,.831,13.713,13.713,0,0,1,0,1.417,1.85,1.85,0,0,0,0,.733,1.191,1.191,0,0,1,0,.586,2.378,2.378,0,0,0-.049.586,13.8,13.8,0,0,1-.1,1.417c-.049.391-.147.831-.2,1.221a1.794,1.794,0,0,0,.049.879.62.62,0,0,1,.049.293,2.271,2.271,0,0,0,.44,1.124c.049.049.1.1.147.1.2,0,.391.049.586.049a5.107,5.107,0,0,1,1.221,0c.1,0,.2.049.293,0,.244-.1.44,0,.684,0,.782.049,1.563.244,2.345.244h.977c.244,0,.342-.147.44-.342a1.756,1.756,0,0,0,.1-.537.682.682,0,0,1,.147-.44.88.88,0,0,1,.782-.44,4.178,4.178,0,0,1,.782,0,1,1,0,0,1,.928.537,2.159,2.159,0,0,1,.293,1.221c-.049.342-.049.684-.1,1.075,0,.2-.1.293-.244.44a3.736,3.736,0,0,1-1.563.537.62.62,0,0,1-.293-.049,7.358,7.358,0,0,0-1.466.049c-.2,0-.391.049-.586.049a2,2,0,0,0-.537.049,1.24,1.24,0,0,1-.586-.1,8.844,8.844,0,0,0-1.124-.147c-.147,0-.342.049-.489.049a3.1,3.1,0,0,0-1.173.147.417.417,0,0,1-.342,0,1.863,1.863,0,0,0-.733-.049,1.833,1.833,0,0,1-.489.049,4.74,4.74,0,0,0-.831.049,3.7,3.7,0,0,1-1.27-.049.744.744,0,0,1-.586-.733A.954.954,0,0,0,251.907,112.169Z" transform="translate(-220.425 -69.986)"/><path class="a" d="M305.485,48.873v.586a7.941,7.941,0,0,0-.049,1.857V52a11.024,11.024,0,0,0,0,1.27c.049.489-.049,1.026.049,1.515a2.667,2.667,0,0,1-.049.879c0,.2-.049.391-.049.586a1.9,1.9,0,0,1-.1.733,3.7,3.7,0,0,0,.049,1.27,10.218,10.218,0,0,1,.049,1.221c.049.586.049,1.221.147,1.808a1.242,1.242,0,0,0,.1.342c0,.049.049.1.049.2a1.879,1.879,0,0,0,.2,1.173c.2.537.293,1.075.489,1.612a1.437,1.437,0,0,0,.489.586A.832.832,0,0,1,307,66.314a.4.4,0,0,1-.489.2,2.9,2.9,0,0,0-1.124,0c-.293.049-.635.049-.928.1a11.909,11.909,0,0,1-1.319-.049c-.244,0-.293-.147-.391-.342a1.507,1.507,0,0,1-.049-.489.528.528,0,0,1,.342-.537,1.4,1.4,0,0,0,.831-1.173,8.94,8.94,0,0,0,.2-2.785v-.049a8.415,8.415,0,0,1-.2-1.905,4.718,4.718,0,0,1,0-.831V58.2a15.122,15.122,0,0,1-.1-2.1,2.005,2.005,0,0,0-.049-.537c0-.049-.049-.147-.049-.2,0-.879-.244-1.808-.293-2.687a4.462,4.462,0,0,0-.049-.831,10.291,10.291,0,0,1-.1-1.221V48.97a.907.907,0,0,1,.489-.831c.1-.049.147-.1.244-.147.147-.1.244-.147.391-.049s.342,0,.489.049a.62.62,0,0,0,.293.049.672.672,0,0,1,.391.489C305.485,48.579,305.485,48.726,305.485,48.873Z" transform="translate(-246.643 -46.8)"/></g><g transform="translate(73.404 52)"><path class="b" d="M81.01,60.793a17.764,17.764,0,0,1-4.739,12.6,16.731,16.731,0,0,1-11.677,5.765,17.289,17.289,0,0,1-12.6-4.4A17.1,17.1,0,0,1,46.567,62.7c-.244-4.788.928-9.234,3.908-12.556a17.652,17.652,0,0,1,12.165-5.765,18.671,18.671,0,0,1,12.947,4.544A16.651,16.651,0,0,1,81.01,60.793Z" transform="translate(-23.799 -22.72)"/><path class="b" d="M141.824,65.559c.049.44-1.075.928-2.882,1.368a56.969,56.969,0,0,1-7.133,1.173c-2.785.293-5.814.44-7.475.635-2.052.147-2.834-.586-2.834-1.124,0-.44,1.075-.928,2.882-1.368a56.973,56.973,0,0,1,7.133-1.173c2.785-.293,5.716-.879,7.573-.782C140.993,64.386,141.775,65.119,141.824,65.559Z" transform="translate(-62.139 -32.909)"/><path class="b" d="M47.2,114.656c.342.244-.1,1.417-1.075,2.98a60.024,60.024,0,0,1-4.25,5.863c-1.808,2.2-3.86,4.446-4.886,5.716-1.368,1.515-2.443,1.563-2.785,1.173-.293-.293.1-1.417,1.075-2.98a60.025,60.025,0,0,1,4.25-5.863,67.044,67.044,0,0,1,4.886-5.912C45.828,114.363,46.854,114.412,47.2,114.656Z" transform="translate(-17.441 -58.604)"/><path class="b" d="M106.171,112.112c.342-.244.489-.049,2.492,1.808a53.755,53.755,0,0,1,5.374,5.765,27.378,27.378,0,0,1,2.785,4.2c.44.831,1.515,2.3,1.612,3.273,0,.44-.831.879-1.075.928-.391.049-1.173-.293-2.443-1.612a62.4,62.4,0,0,1-4.544-5.912,38.4,38.4,0,0,1-3.322-5.863C106.219,113.089,105.829,112.356,106.171,112.112Z" transform="translate(-54.236 -57.33)"/><path class="b" d="M25.507,96.666c.147.391-.1.489-2.443,2.1a57.926,57.926,0,0,1-7.133,4.153A27.751,27.751,0,0,1,11,104.776c-.928.244-2.736,1.026-3.713.879-.44-.1-.684-1.075-.684-1.319.049-.44.586-1.124,2.2-2.1a72.776,72.776,0,0,1,7.084-3.273,42.066,42.066,0,0,1,6.791-2.052C24.53,96.422,25.361,96.275,25.507,96.666Z" transform="translate(-3.374 -49.359)"/><path class="b" d="M83.14,122c.44,0,.44.244,1.124,2.98a55.213,55.213,0,0,1,1.368,8.159,26.386,26.386,0,0,1,0,5.276c-.1.977,0,2.882-.489,3.762-.244.391-1.221.293-1.466.147-.391-.2-.831-.928-1.221-2.785a63.412,63.412,0,0,1-.586-7.817,40.816,40.816,0,0,1,.489-7.084C82.553,122.733,82.749,122,83.14,122Z" transform="translate(-41.855 -62.43)"/><path class="b" d="M21.1,70.7c-.049.44-.293.391-3.078.733a56.986,56.986,0,0,1-8.11.342,34.008,34.008,0,0,1-6.058-.831,4.654,4.654,0,0,1-2.443-1.221C1.22,69.531-.05,68.945,0,68.7c.1-.391,2.247-.635,4.1-.733a54.34,54.34,0,0,1,6.5.244,59.059,59.059,0,0,1,8.012,1.417C20.42,70.019,21.1,70.264,21.1,70.7Z" transform="translate(0.003 -34.78)"/><path class="b" d="M120.372,94.277c.147-.391,1.026-.2,3.713.2a50.915,50.915,0,0,1,7.035,1.612,34.07,34.07,0,0,1,5.472,2.3c1.661.879,2.492,1.857,2.247,2.3-.2.342-1.466.831-3.224.489a48.565,48.565,0,0,1-6.009-1.857,57.055,57.055,0,0,1-7.328-3.273C120.665,95.156,120.226,94.668,120.372,94.277Z" transform="translate(-61.549 -48.143)"/><path class="b" d="M47.2,5.168c.342-.2,1.319.537,2.931,2.687,1.026,1.515,2.052,4.2,3.273,6.644a31.454,31.454,0,0,1,2.247,5.618c.586,1.808,1.026,2.785.537,2.931-.391.1-1.612-.44-2.638-1.954a47.4,47.4,0,0,1-3.127-5.57,75.244,75.244,0,0,1-3.273-7.182C46.563,6.634,46.856,5.364,47.2,5.168Z" transform="translate(-23.942 -2.662)"/><path class="b" d="M87.387,19.383C87,19.334,87,18.406,86.9,15.719a43.757,43.757,0,0,1,.391-7.182,32.8,32.8,0,0,1,1.319-5.814C89.195.915,89.976-.062,90.465.085c.391.147,1.075,1.27,1.026,3.127a46.977,46.977,0,0,1-.782,6.254,64.806,64.806,0,0,1-1.954,7.817C88.217,18.943,87.827,19.432,87.387,19.383Z" transform="translate(-44.441 -0.07)"/><path class="b" d="M125.172,19.131c.147.1.635.489-.44,2.052a58.614,58.614,0,0,1-4.69,5.716c-1.954,2.1-4.153,4.25-5.325,5.521-1.466,1.466-3.273,2.2-3.615,1.759-.244-.342-.049-1.27,1.026-2.834a54.551,54.551,0,0,1,4.739-5.716,56.484,56.484,0,0,1,5.96-5.276C124.342,19.131,124.977,18.936,125.172,19.131Z" transform="translate(-56.773 -9.786)"/><path class="b" d="M32.55,42.062c-.244.342-.391.684-2-.147a56.927,56.927,0,0,1-5.96-3.713c-2.247-1.563-4.544-3.42-5.863-4.348-1.563-1.173-2.443-2.834-2.1-3.176.293-.293,1.612-.391,3.224.44a40.761,40.761,0,0,1,5.228,3.518,77.183,77.183,0,0,1,6.4,5.423C32.794,41.329,32.794,41.72,32.55,42.062Z" transform="translate(-8.463 -15.616)"/></g></g></svg>