<svg xmlns="http://www.w3.org/2000/svg" viewBox="-1658 2029.672 74 57.52"><defs><style>.a{fill:#e8b74e;}.b{fill:#c69b52;}.c{fill:#f9bdbd;}.d{fill:#ee8c8c;}.e{fill:#b29e87;}.f{fill:#7c746b;}.g{fill:#e4f4f7;}.h{fill:#8fc1bf;}.i{fill:#82adaa;}.j{fill:#dce3f3;}.k{fill:#c9d1e2;}.l{fill:#8697aa;}.m{fill:#f7f8f8;}.n{fill:#dcd8d2;}.o{fill:#fefad6;}.p{fill:#e8df9c;}.q{fill:#ffda9c;}.r{fill:#005884;}.s{fill:#003449;}</style></defs><g transform="translate(-1659.605 2017.676)"><path class="a" d="M102.2,167.579l8.22-8.679h40.991l-6.133,8.679Z" transform="translate(-86.495 -137.833)"/><path class="b" d="M153.8,158.9l.239,8.679h40.019l.733-8.679Z" transform="translate(-129.875 -137.833)"/><path class="b" d="M36.019,158.9,22.8,161.62l-9.1,12.691,14.067-6.7Z" transform="translate(-12.095 -137.833)"/><g transform="translate(30.791 13.786)"><path class="c" d="M228.7,131.98l4.349,13.648,4.27-3.055L232.46,130.1Z" transform="translate(-228.7 -129.68)"/><path class="d" d="M252.3,128.02l9.415-.42,5.225,13.9-9.893-1.226Z" transform="translate(-248.54 -127.6)"/></g><g transform="translate(41.315 16.024)"><path class="e" d="M256.6,153.957l3.122,14.723,6.245-1.058L263.084,153Z" transform="translate(-256.6 -153)"/><path class="f" d="M297.1,153.5l4.668,3.71,3.2,14.1-5.018-3.441Z" transform="translate(-290.648 -153.416)"/><path class="f" d="M276.1,240.376l6.2-1.276,5.018,3.441-3.744,2.266Z" transform="translate(-272.993 -224.646)"/></g><g transform="translate(51.103 14.554)"><path class="g" d="M324.4,155.4v13.027l5.895.42V156.172Z" transform="translate(-324.4 -149.474)"/><path class="h" d="M324.4,126.026l4.684-5.926,6.707.672-5.5,6.027Z" transform="translate(-324.4 -120.1)"/><path class="i" d="M361.4,142.8V130.127l5.5-6.027.653,15.277Z" transform="translate(-355.505 -123.428)"/></g><path class="a" d="M353.9,207.349l2.947-39.8,6.165-8.646-2.581,35.019Z" transform="translate(-298.097 -137.833)"/><g transform="translate(17.951 11.996)"><path class="j" d="M116.3,168.071l2.708,14.185,8.571.537L124.648,167.5Z" transform="translate(-116.3 -157.998)"/><path class="k" d="M168.7,152.189l5.91-3.089,2.629,13.749-5.608,4.633Z" transform="translate(-160.352 -142.687)"/><path class="j" d="M116.3,140.927,120,134.8l4.652,5.49Z" transform="translate(-116.3 -130.788)"/><path class="k" d="M144.152,126.892,139.5,121.4l4.716-2.7,5.847,5.1Z" transform="translate(-135.804 -117.391)"/><path class="l" d="M118.3,177.355l8.332-.755,1.131,5.926-8.268,1.058Z" transform="translate(-117.981 -165.571)"/><path class="j" d="M138.239,114.912,138,113.7l4.859-2.8.1,1.309Z" transform="translate(-134.543 -110.9)"/></g><g transform="translate(27.525 20.049)"><path class="m" d="M183.466,154.354l6.07,7.538,4.7-4.449s-3.585-4.919-4.572-5.976-5.385-4.667-5.385-4.667S181.491,152.306,183.466,154.354Z" transform="translate(-182.758 -146.8)"/><path class="n" d="M192.4,146.9l3.584.353a6.215,6.215,0,0,1,3.919,1.83l8.3,8.36-5.99-.034a49.942,49.942,0,0,0-5.114-6.262C195.347,149.4,192.4,146.9,192.4,146.9Z" transform="translate(-190.864 -146.883)"/><path class="n" d="M225.4,214.117l4.556-4.617,5.99.034-1.991,4.046Z" transform="translate(-218.607 -198.974)"/></g><g transform="translate(40.631 21.425)"><path class="o" d="M252.462,177.784l2.39,6.195,3.919-1.813s-1.306-3.962-1.736-4.868c-.414-.89-2.517-4.2-2.517-4.2S251.6,176.021,252.462,177.784Z" transform="translate(-252.303 -173.1)"/><path class="p" d="M266.2,173.2l2.23,1.024a4.423,4.423,0,0,1,2.151,2.048l3.664,7.235-3.839-1.36a34.633,34.633,0,0,0-2.023-5.171C267.586,175.483,266.2,173.2,266.2,173.2Z" transform="translate(-263.986 -173.183)"/><path class="n" d="M268.2,228.547l3.871-1.947,3.839,1.36-2.087,2.149Z" transform="translate(-265.667 -217.619)"/></g><path class="q" d="M102,210.467l1.466,39.283,38.7-.067,2.915-39.283Z" transform="translate(-86.327 -180.687)"/><path class="r" d="M105.1,283.444,146.792,282l-.733,10.005H105.1Z" transform="translate(-88.933 -240.267)"/><path class="s" d="M362.933,252.376l5.974-5.976-.494,8.394-6.213,7.588Z" transform="translate(-305.075 -210.644)"/><path class="a" d="M372.4,167.546l9.989,8.159,6.866-14.085-10.69-2.72Z" transform="translate(-313.65 -137.833)"/></g></svg>