<svg xmlns="http://www.w3.org/2000/svg" xmlns:xlink="http://www.w3.org/1999/xlink" viewBox="-1656 1770.008 70 70"><defs><style>.a{fill:#00a5e5;}.b{clip-path:url(#a);}.c{fill:#00b6de;}.d{fill:#feddbe;}.e{fill:#ffcb05;}.f{fill:#ee325b;}</style><clipPath id="a"><path d="M70.036,37.714c0,26.823-28.529,41.509-49.889,31.768A32.428,32.428,0,0,1,9.542,61.84c-.9-.9-1.643-1.948-2.539-3C-11.967,33.668,10.587-2.6,41.208,3.1a12.616,12.616,0,0,1,2.539.6,31.512,31.512,0,0,1,6.572,2.547A38.9,38.9,0,0,1,54.5,8.793a28.3,28.3,0,0,1,5.527,4.8A34.316,34.316,0,0,1,70.036,37.714Z" transform="translate(-0.036 -2.501)"/></clipPath></defs><g transform="translate(-1656 1770.008)"><path class="a" d="M70.036,37.714c0,26.823-28.529,41.509-49.889,31.768A32.428,32.428,0,0,1,9.542,61.84c-.9-.9-1.643-1.948-2.539-3C-11.967,33.668,10.587-2.6,41.208,3.1a12.616,12.616,0,0,1,2.539.6,31.512,31.512,0,0,1,6.572,2.547A38.9,38.9,0,0,1,54.5,8.793a28.3,28.3,0,0,1,5.527,4.8A34.316,34.316,0,0,1,70.036,37.714Z" transform="translate(-0.036 -2.501)"/><g class="b"><path class="c" d="M70.036,37.714c0,26.823-28.529,41.509-49.889,31.768A32.428,32.428,0,0,1,9.542,61.84c-.9-.9-1.643-1.948-2.539-3C-11.967,33.668,10.587-2.6,41.208,3.1a12.616,12.616,0,0,1,2.539.6,31.512,31.512,0,0,1,6.572,2.547A38.9,38.9,0,0,1,54.5,8.793a28.3,28.3,0,0,1,5.527,4.8A34.316,34.316,0,0,1,70.036,37.714Z" transform="translate(-0.036 -2.501)"/></g><g class="b"><path class="d" d="M49.205,18.746a6.77,6.77,0,0,0-2.838,3.3,14.235,14.235,0,0,0-1.046,4.346,18.658,18.658,0,0,0-.448,4.046,8.333,8.333,0,0,0,1.046,4.2,2.9,2.9,0,0,1,.448,1.5c0,.45-.6,1.049-1.046.9a.521.521,0,0,1-.3-.15c-1.643-1.349-1.792-3.6-2.39-5.544-.149-.15-.149-.45-.448-.6-.149-.15-.448,0-.6,0-.9.3-1.344,1.5-1.494,2.547-.9,4.046-2.838,8.092-6.273,10.34-.448,0-.747-.6-.747-.9a1.7,1.7,0,0,1,.448-1.2c.9-1.648,1.643-3.3,2.539-4.945.3-.45.448-1.049.149-1.349-1.494.6-2.241,2.248-2.838,3.746a25.232,25.232,0,0,1-2.987,5.095,2.13,2.13,0,0,1-.6-2.1,5.263,5.263,0,0,1,.9-2.1c.747-1.349,1.494-2.547,2.091-3.9a1.987,1.987,0,0,0,.3-1.8c-1.046.3-1.344,1.5-1.792,2.547a9.129,9.129,0,0,1-2.689,3.6c-.448-.3-.448-.9-.3-1.5a6.08,6.08,0,0,1,.747-1.349,12.559,12.559,0,0,0,1.942-4.346c.149-.3,0-.9-.3-.9s-.448.15-.6.45c-.9,1.2-1.792,2.547-2.539,3.746a1.187,1.187,0,0,1-.747-1.2,4.773,4.773,0,0,1,.448-1.349c2.539-4.2,5.079-8.541,8.813-11.688,2.987-2.547,5.975-2.4,7.02-3.447C43.231,18.6,45.77,15,45.919,15a.548.548,0,0,1,.448.15A6.719,6.719,0,0,1,47.861,17.1,2.511,2.511,0,0,0,49.8,18.447Z" transform="translate(13.177 3.729)"/></g><g class="b"><path class="e" d="M52.676,14.792,44.909,28.278,42.22,26.33l-4.182-3L35.2,21.385,45.506,6.4A54.554,54.554,0,0,1,52.676,14.792Z" transform="translate(17.324 -0.558)"/></g><g class="b"><path class="d" d="M34.124,7.45A5.91,5.91,0,0,1,32.033,11.2a19.548,19.548,0,0,1-3.585,2.547,20.052,20.052,0,0,1-3.585,1.8,13.769,13.769,0,0,1-4.332.6,3.1,3.1,0,0,0-1.643.15c-.448.15-.9.9-.448,1.349l.3.3c1.792,1.049,4.033.45,5.975.45.3,0,.448,0,.6.15s.149.3.149.6c0,1.049-1.046,1.8-1.792,2.248C20.233,23.634,17.1,26.93,16.2,30.827a1.08,1.08,0,0,0,1.195.3,2.68,2.68,0,0,0,1.046-.749c1.195-1.349,2.539-2.7,3.734-4.046.3-.3.747-.749,1.195-.6,0,1.648-1.344,2.847-2.539,3.9a27.1,27.1,0,0,0-3.734,4.5,1.8,1.8,0,0,0,2.091-.15,5.173,5.173,0,0,0,1.643-1.5c1.046-1.049,1.942-2.248,2.987-3.3.448-.45.9-1.049,1.643-.9,0,1.049-.9,1.8-1.643,2.547a9.494,9.494,0,0,0-2.39,3.9,1.187,1.187,0,0,0,1.494-.3,4.036,4.036,0,0,0,1.046-1.2,12.027,12.027,0,0,1,3.435-3.3c.3-.15.9-.3,1.046,0a.66.66,0,0,1-.149.749c-.9,1.2-1.792,2.547-2.689,3.746a.971.971,0,0,0,1.344.3c.448-.15.747-.6,1.195-.9,3.137-3.746,6.273-7.792,7.917-12.288,1.344-3.746.149-6.444.747-7.792,0-.15,2.539-3.746,2.539-3.9s-.149-.3-.3-.45a6.593,6.593,0,0,0-2.241-.749A2.631,2.631,0,0,1,34.871,7.3Z" transform="translate(7.944 -0.109)"/></g><g class="b"><path class="e" d="M44.915,5.095,34.609,19.78l-2.838-1.948-4.182-3L24.9,12.887,35.8,0A49.1,49.1,0,0,1,44.915,5.095Z" transform="translate(12.239 -3.748)"/></g><g class="b"><path class="f" d="M18.4,31.255a4.9,4.9,0,0,0-6.871,1.5c-1.494,2.4-.3,5.245,1.344,7.193a36.407,36.407,0,0,0,5.825,4.945c1.494,1.2,4.481,4.645,5.975,3.6.9-.6,1.643-3.6,2.091-4.5.747-1.5,1.344-3,2.091-4.5.9-2.1,2.241-4.5,1.643-6.893s-2.987-3.447-5.228-3.6a6.409,6.409,0,0,0-4.033,1.2c-1.046.6-1.792,1.349-2.987.749Z" transform="translate(5.299 10.701)"/></g></g></svg>