<svg xmlns="http://www.w3.org/2000/svg" viewBox="-1649 1635 55.134 75.173"><defs><style>.a{fill:#e6bf33;}.b{fill:#ffcb05;}.c{fill:#ebc63c;}.d{fill:#efe6c2;}.e{fill:#e6ac2a;}.f{fill:#e0b72b;}.g{fill:#404345;}.h{fill:#d9dad9;}</style></defs><g transform="translate(-1649 1635)"><path class="a" d="M36.829,23.678c0,10.637-6.559,24.11-14.714,24.11S7.4,34.138,7.4,23.678c0-10.637,6.559-9.041,14.714-9.041S36.829,13.042,36.829,23.678Z" transform="translate(5.896 11.252)"/><path class="b" d="M42.174,18.955c0,10.637-8.155,17.374-18.437,17.374C13.632,36.152,5.3,29.415,5.3,18.955,5.3,8.318,13.455,3,23.737,3,33.842,3,42.174,8.318,42.174,18.955Z" transform="translate(4.273 2.325)"/><g transform="translate(21.813)"><path class="c" d="M13.792,7.726S11.311,1.167,12.551.812c1.064-.355,2.3,2.659,2.127,5.673C14.679,7.017,13.97,7.195,13.792,7.726Z" transform="translate(-12.204 0.612)"/><path class="c" d="M17.113,7.1s2.3-5.85,1.064-6.382c-1.064-.355-2.3,2.482-1.95,5.318C16.4,6.563,16.936,6.386,17.113,7.1Z" transform="translate(-9.143 0.534)"/><path class="c" d="M15.609,8.335A1.842,1.842,0,0,0,16.5,7.094C16.85,4.612,16.673.18,15.609,0,13.836-.175,13.659,3.548,15.609,8.335Z" transform="translate(-10.652 0.003)"/></g><g transform="translate(0 29.08)"><path class="d" d="M27.556,62.493c15.246,0,27.479-11.346,27.479-30.315a46.033,46.033,0,0,0-1.064-9.928l-.177-.355-3.368,7.091L45.107,16.4l-5.5,5.673L35.356,18.35l-3.723,8.51-5.318-5.673-3.368,4.077-4.077-7.446-3.014,7.446-5.318-4.609-3.9,2.659L2.559,20.655l-1.418.886A54.4,54.4,0,0,0-.1,32.178C.077,51.147,12.31,62.493,27.556,62.493Z" transform="translate(0.1 -16.4)"/></g><path class="e" d="M20.494,13.077c0-.177-.177-.177-.355-.177h-5.85c-.177,0-.355,0-.355.177s-.177.355,0,.355l2.837,5.318c0,.177.177.177.355.177h0a.619.619,0,0,0,.355-.177l3.014-5.318Z" transform="translate(10.885 9.975)"/><g transform="translate(15.423 14.898)"><ellipse class="f" cx="3.191" cy="3.723" rx="3.191" ry="3.723"/><ellipse class="g" cx="2.482" cy="3.014" rx="2.482" ry="3.014" transform="translate(0.709 0.709)"/><ellipse class="h" cx="0.886" cy="1.064" rx="0.886" ry="1.064" transform="translate(3.014 1.241)"/><g transform="translate(18.615)"><ellipse class="f" cx="3.191" cy="3.723" rx="3.191" ry="3.723"/><ellipse class="g" cx="2.482" cy="3.014" rx="2.482" ry="3.014" transform="translate(0.709 0.709)"/><ellipse class="h" cx="0.886" cy="1.064" rx="0.886" ry="1.064" transform="translate(3.014 1.241)"/></g></g></g></svg>