<svg xmlns="http://www.w3.org/2000/svg" viewBox="-1656 1900.202 70 67.215"><defs><style>.a{fill:#ffcb05;}.b{fill:#f9e0a4;}.c{fill:#f3e4b2;}.d{fill:#ee325b;}.e{fill:#f07f7b;}.f{fill:#fff;}.g{fill:#00b6de;}.h{fill:#e65657;}.i{fill:#e87979;}.j{fill:#a7784e;}.k{fill:#cfde00;}</style></defs><g transform="translate(-1941.795 -118)"><path class="a" d="M17.693,27.369s-2.246,20.214-.518,33.863l17.968.864,2.592-24.533L27.2,7.5Z" transform="translate(275.704 2021.413)"/><g transform="translate(310.847 2058.802)"><path class="b" d="M29.2,24.8l20.56,1.382L48.551,45.705,27.3,49.506Z" transform="translate(-27.3 -24.8)"/><path class="c" d="M27.3,49.506h0L29.2,24.8h0l20.732,1.209-1.209,19.7h0Zm1.9-24.533L27.3,49.333l21.078-3.8,1.209-19.523Z" transform="translate(-27.3 -24.8)"/></g><path class="a" d="M39.6,45.169c.173,0,6.047,1.382,6.047,1.382L44.956,25.3l-4.319.518Z" transform="translate(292.497 2034.367)"/><g transform="translate(336.762 2028.568)"><path class="b" d="M43.609,59.649,58.64,56.021s2.937-20.732,2.592-22.806c0,0-6.911-24.533-8.12-25.916L42.4,39.263Z" transform="translate(-42.227 -7.3)"/><path class="c" d="M43.682,59.822h0L42.3,39.435h0L53.012,7.3v.173c1.209,1.382,7.947,24.879,8.12,25.916.346,2.073-2.419,21.942-2.592,22.806h0Zm-1.209-20.56,1.382,20.214,14.858-3.628c.173-1.037,2.937-20.732,2.419-22.806,0-.173-6.738-23.5-8.12-25.743Z" transform="translate(-42.3 -7.3)"/></g><path class="d" d="M16.774,40.845H12.8L30.25,5.6S41.134,32.034,43.207,39.636l-3.628-.346L29.9,9.746Z" transform="translate(272.995 2020.031)"/><path class="e" d="M23,5.6l25.915,5.183,3.974,29.371-17.1-.518Z" transform="translate(280.418 2020.031)"/><path class="d" d="M38.1,9.536S52.267,5.908,56.241,7.463L45.529,39.426h-3.8Z" transform="translate(291.406 2021.105)"/><path class="a" d="M46.307,44.126s-3.283-17.45,2.246-18.314,3.283,16.931,3.283,16.931Z" transform="translate(296.675 2034.718)"/><g transform="translate(343.846 2040.834)"><path class="f" d="M47.609,14.4,46.4,25.285l6.047-.518L52.792,14.4Z" transform="translate(-46.4 -14.4)"/></g><path class="g" d="M47.955,15.1,47.6,19.915h2.145V15.1Z" transform="translate(297.765 2026.493)"/><path class="g" d="M48.039,18,47.4,21.577s2.006-.294,2.881-.293V18Z" transform="translate(297.227 2029.054)"/><path class="g" d="M49.1,15.2v4.815h1.631V15.2Z" transform="translate(298.843 2026.393)"/><rect class="g" width="1.402" height="3.283" transform="translate(347.943 2047.054)"/><g transform="translate(319.831 2018.202)"><path class="h" d="M32.5,11.839l.518-9.848L35.955,1.3,34.746,12.357Z" transform="translate(-32.5 -1.3)"/></g><path class="i" d="M35.355,1.3h2.937l-.346,11.748,1.9,2.764-4.492-.691L33.8,12.53,35.009,1.3Z" transform="translate(288.277 2016.902)"/><g transform="translate(320.004 2019.411)"><path class="f" d="M32.6,5.8l2.937-1.382,3.628,1.037.173-2.592L35.71,2,32.773,3.382Z" transform="translate(-32.6 -2)"/></g><g transform="translate(300.308 2041.007)"><path class="f" d="M21.2,15.191v11.4l4.319-.518V14.5Z" transform="translate(-21.2 -14.5)"/></g><path class="g" d="M0,0H.691V11.4H0Z" transform="translate(301.646 2041.37) rotate(-2.155)"/><path class="g" d="M0,0H4.319V.691H0Z" transform="translate(300.284 2049.825) rotate(-4.751)"/><path class="g" d="M0,0H4.319V.691H0Z" transform="matrix(0.991, -0.132, 0.132, 0.991, 300.286, 2047.342)"/><path class="g" d="M0,0H4.319V.691H0Z" transform="translate(300.289 2044.782) rotate(-3.942)"/><g transform="translate(295.125 2062.085)"><path class="f" d="M18.2,26.7V38.967l4.319-.346.346-11.576Z" transform="translate(-18.2 -26.7)"/></g><g transform="translate(302.381 2061.912)"><path class="f" d="M22.573,26.6,22.4,38.521,26.719,38V26.6Z" transform="translate(-22.4 -26.6)"/></g><path class="g" d="M0,0H.691V11.748H0Z" transform="matrix(0.999, -0.039, 0.039, 0.999, 296.626, 2062.452)"/><path class="g" d="M0,0H4.319V.691H0Z" transform="translate(295.269 2070.804) rotate(-6.91)"/><path class="g" d="M0,0H4.492V.691H0Z" transform="matrix(0.985, -0.172, 0.172, 0.985, 295.113, 2067.993)"/><path class="g" d="M0,0H4.665V.691H0Z" transform="translate(295.107 2065.233) rotate(-5.2)"/><rect class="g" width="3.974" height="0.691" transform="translate(302.727 2064.849)"/><path class="g" d="M0,0H4.319V.691H0Z" transform="translate(302.539 2067.978) rotate(-5.154)"/><path class="g" d="M0,0H4.146V.691H0Z" transform="translate(302.519 2070.485) rotate(-7.77)"/><path class="d" d="M26.573,28.819V24.5L24.5,26.4Z" transform="translate(281.509 2033.784)"/><path class="d" d="M18.773,28.3,16.7,26.4l3.628-1.9Z" transform="translate(275.833 2033.784)"/><path class="e" d="M30.176,26.4H16.7l3.628-1.9H32.249Z" transform="translate(275.833 2033.784)"/><g transform="translate(318.794 2063.467)"><path class="f" d="M32.418,27.5,31.9,35.447h7.084L40.366,27.5Z" transform="translate(-31.9 -27.5)"/></g><path class="g" d="M32.817,28.137a18.536,18.536,0,0,0,0,3.1h2.639l.26-3.1Z" transform="translate(287.485 2036.38)"/><path class="g" d="M32.811,30.319l-.246,2.351h2.73l.371-2.476Z" transform="translate(287.302 2037.913)"/><path class="g" d="M34.86,28.122,34.6,31.273h2.432l.549-3.151Z" transform="translate(288.818 2036.366)"/><path class="g" d="M34.755,30.216l-.308,2.418H36.8l.306-2.418Z" transform="translate(288.684 2037.918)"/><g transform="translate(346.783 2068.132)"><ellipse class="j" cx="0.691" cy="0.691" rx="0.691" ry="0.691"/></g><g transform="translate(311.492 2074.031)"><path class="k" d="M29.1,44.992c-2.073.173-1.728-2.937,0-2.764-.518-.518-1.209-.864-.691-1.728a1.074,1.074,0,0,1,1.037-.691c0-1.037-.173-2.419,1.209-2.592a1.314,1.314,0,0,1,1.382,1.037c1.037-.346,2.073-1.037,2.419.518,1.037-.691,2.764,1.209,1.728,2.073.518,0,.691.518,1.037.691a1.018,1.018,0,0,1,.864-1.555c-.346-.864-1.037-1.555-.346-2.419-.691-.518-1.037-2.419.173-2.246,0-.518,0-1.209.518-1.555s.864,0,1.382.173c.346.173.173.173.518.173s.518-.346.864-.173a1.511,1.511,0,0,1,1.037,1.555c.864,0,2.073.691,1.555,1.555,0,.173-.518.346-.518.518s.346.346.346.518c.173.346.173.864.346,1.209.173-.864.518-2.246,1.555-2.246,1.037-.173,1.382,1.037,1.382,1.9.864-.173,1.382.691,1.728,1.382.346,1.037-1.382,1.9-1.9,1.037-.346.518-2.246,1.9-2.246.518-.173.691-1.728,1.555-2.246.691-.864,1.209-2.937,1.209-3.11-.518-.173.864-.864,1.555-1.728,1.209-.864,1.555-2.937,1.037-4.146,0-.346,1.382-2.073,1.555-3.283.864-.173.691-.864.173-1.209.518" transform="translate(-27.673 -33.614)"/></g></g></svg>