<?xml version="1.0" encoding="utf-8"?>
<!-- Generator: Adobe Illustrator 21.0.2, SVG Export Plug-In . SVG Version: 6.00 Build 0)  -->
<svg version="1.1" id="Layer_1" xmlns="http://www.w3.org/2000/svg" xmlns:xlink="http://www.w3.org/1999/xlink" x="0px" y="0px"
	 viewBox="0 0 609 97.4" style="enable-background:new 0 0 609 97.4;" xml:space="preserve">
<style type="text/css">
	.st0{fill:#FFCB05;}
	.st1{fill:#FCB32B;}
	.st2{enable-background:new    ;}
</style>
<g transform="translate(-333 88)">
	<g>
		<path class="st0" d="M380.9-75.7l12.8-10.7l5.8,15.7l14.9-5.3l-3.5,18l17.9,3.9l-9.9,16.3l11.5,11.4L412.6-18l3.1,16.2l-16.2-4.7
			l-4.2,11.4c-2,5.1-2.1,4-5.1,1.4l-11-8.4L368.1,9.4l-5.8-15.7l-16.5,2.9L350-18c0.5-1.6-0.4-3.4-2.1-3.9c0,0-0.1,0-0.1,0L333-25.7
			l10.7-12.8L333-51.4l15.7-5.8l-2.9-16.5l16.5,2.9l3.8-17.2L380.9-75.7z"/>
	</g>
	<g>
		<circle class="st1" cx="380.8" cy="-39.3" r="32.8"/>
	</g>
	<g class="st2">
		<path d="M366.2-48.3c0.2,0.2,0.3,0.5,0.3,1.1s-0.2,1-0.5,1.2c-0.4,0.3-0.8,0.4-1.2,0.4c-1.1,0-1.6-0.5-1.6-1.6
			c0-1.3,0.6-1.9,1.6-1.8C365.4-48.9,365.8-48.7,366.2-48.3z M386.4-48.3c0.2,0.2,0.3,0.5,0.3,1.1s-0.2,1-0.5,1.2
			c-0.4,0.3-0.8,0.4-1.2,0.4c-1.1,0-1.6-0.5-1.6-1.6c0-1.3,0.6-1.9,1.6-1.8C385.5-48.9,386-48.7,386.4-48.3z"/>
		<path d="M384.8-26.7c-3.2,0.1-7.2-0.1-12-0.7c-5.3-0.7-9.8-1.7-13.3-3.2c-1.2-0.5-1.8-0.9-2-1.2c-0.1-0.2-0.2-0.5-0.1-0.7
			c0.1-0.2,0.4-0.4,0.7-0.4c-0.2,0,1.3,0.6,4.3,1.8c5.8,2.4,14,3.4,24.5,3c6.9-0.2,12.4-1.5,16.4-3.8c0.9-0.5,1.7-0.8,2.2-0.8
			c0.6-0.1,0.8,0.1,0.8,0.4c0,0.8-1.4,1.7-4.1,2.6c-2.7,0.9-5.5,1.6-8.4,2.2C391.7-27.1,388.7-26.8,384.8-26.7z"/>
	</g>
	<g>
		<path class="st0" d="M510.4-75.7l12.8-10.7l5.8,15.7l14.9-5.2l-3.5,18l17.9,3.9l-9.9,16.3l11.5,11.4L542-17.9l3.1,16.2L529-6.3
			l-4.2,11.4c-2,5.1-2.1,4-5.1,1.4l-11-8.4L497.5,9.4l-5.8-15.7l-16.5,2.9l4.2-14.5c0.5-1.6-0.4-3.4-2.1-3.9c0,0-0.1,0-0.1,0
			l-14.8-3.8l10.7-12.8l-10.7-12.8l15.7-5.8l-2.9-16.5l16.5,2.9l3.9-17.4L510.4-75.7z"/>
	</g>
	<g>
		<circle class="st1" cx="511.2" cy="-38.1" r="32.8"/>
	</g>
	<g class="st2">
		<path d="M496.2-47.6c3.5-3.2,5.4-4.7,5.8-4.7c0.3-0.2,1.9,1.3,4.7,4.3l1.7,1.6l0.4,0.4c0.3,0.2,0.4,0.4,0.5,0.5
			c0.2,0.3,0.3,0.6,0.3,0.9c-0.1,0.5-0.6,0.6-1.5,0.3c-0.1-0.1-0.9-0.9-2.2-2.6c-2.1-2.4-3.4-3.6-3.9-3.5c-0.6,0.1-2.1,1.3-4.4,3.8
			c-1.1,1-1.9,1.7-2.4,2.2c-0.7,0.3-1.1,0.3-1.2,0.1c-0.3-0.4-0.3-0.8-0.1-1.2L496.2-47.6z"/>
		<path d="M515.2-47.6c3.5-3.2,5.4-4.7,5.8-4.7c0.3-0.2,1.9,1.3,4.7,4.3l1.7,1.6l0.4,0.4c0.3,0.2,0.4,0.4,0.5,0.5
			c0.2,0.3,0.3,0.6,0.3,0.9c-0.1,0.5-0.6,0.6-1.5,0.3c-0.1-0.1-0.9-0.9-2.2-2.6c-2.1-2.4-3.4-3.6-3.9-3.5c-0.6,0.1-2.1,1.3-4.4,3.8
			c-1.1,1-1.9,1.7-2.4,2.2c-0.7,0.3-1.1,0.3-1.2,0.1c-0.3-0.4-0.3-0.8-0.1-1.2L515.2-47.6z"/>
	</g>
	<g>
		<path class="st0" d="M637-75.7l12.8-10.7l5.8,15.7l14.9-5.2L667-58l17.9,3.9L675-37.7l11.5,11.4l-17.8,8.4l3.1,16.2l-16.2-4.7
			L651.4,5c-2,5.1-2.1,4-5.1,1.4l-11-8.4L624.1,9.3l-5.8-15.7L602-3.5l4.2-14.5c0.5-1.6-0.4-3.4-2.1-3.9c0,0-0.1,0-0.1,0l-14.8-3.8
			l10.7-12.8l-10.7-12.8l15.7-5.8L602-73.6l16.5,2.9l3.7-17.3L637-75.7z"/>
	</g>
	<g>
		<circle class="st1" cx="637.8" cy="-38.1" r="32.8"/>
	</g>
	<g class="st2">
		<path d="M636.6-50.6c0.1,1.5,0.1,2.6,0.1,3.2c0,1.8-0.2,2.8-0.5,3.1c-0.3,0.3-0.7,0.4-0.9,0.2c-0.2-0.2-0.3-1-0.3-2.5
			c0.1-3,0.1-5.1,0.1-6.4c-0.1-1.8,0-2.9,0.4-3.2c0.8-0.7,1.1,0.2,1.1,2.8C636.6-53.1,636.6-52.2,636.6-50.6z M640.7-49.8
			c0-1.5-0.1-2.6-0.1-3.2c0-1.8,0.2-2.8,0.5-3.1c0.3-0.3,0.7-0.4,0.9-0.2c0.2,0.2,0.3,1,0.3,2.5c-0.1,3-0.1,5.1-0.1,6.4
			c0.1,1.8,0,2.9-0.4,3.2c-0.7,0.7-1.1-0.2-1.2-2.8C640.7-47.2,640.7-48.2,640.7-49.8z"/>
		<path d="M622.2-27.6c-2.3,0-3.5-0.1-3.6-0.1c-0.4-0.2-0.5-0.5-0.4-0.9c0.1-0.4,0.7-0.6,1.7-0.6l8.8,0.2l10.1,0
			c2.7,0,4.9,0,6.5-0.1c0.9,0,1.9,0,2.9,0c1.1,0,1.6,0,1.7,0c0.8,0,1.4-0.1,1.8-0.1c1-0.1,2.1-0.1,3.1,0c0.5,0,0.8,0.5,0.8,1.4
			c0,1.1-0.3,2.1-0.8,3c-0.4,0.8-1.1,1.5-2.1,2.2c-1.5,0.9-3,1.3-4.3,1.4c-1.5,0.1-3.1-0.1-4.7-0.6c-2.1-0.6-3.5-1.8-4.2-3.5
			c-0.7-1.5-1.2-2.3-1.5-2.5C637.9-27.9,632.7-27.8,622.2-27.6z M646.8-28.2c-4.6,0-6.9,0.1-7,0.2c-0.3,0.6,0.1,1.6,1.3,3.1
			c1.3,1.5,3,2.4,5.2,2.5c1.8,0.2,3.6-0.1,5.2-0.9c1.3-0.6,2.2-1.5,2.7-2.9c0.3-0.9,0.2-1.6-0.2-1.9
			C653.8-28.1,651.4-28.2,646.8-28.2z"/>
	</g>
	<g>
		<path class="st0" d="M770.9-75.7l12.8-10.7l5.8,15.7l14.9-5.2l-3.5,18l17.9,3.9l-9.9,16.3l11.5,11.4l-17.8,8.4l3.1,16.2l-16.2-4.7
			L785.3,5c-2,5.1-2.1,4-5.1,1.4l-11-8.4L758,9.3l-5.8-15.7l-16.5,2.9l4.2-14.5c0.5-1.6-0.4-3.4-2.1-3.9c0,0-0.1,0-0.1,0L723-25.7
			l10.7-12.8L723-51.4l15.7-5.8l-2.9-16.5l16.5,2.9l3.8-17.2L770.9-75.7z"/>
	</g>
	<g>
		<circle class="st1" cx="771.7" cy="-38.1" r="32.8"/>
	</g>
	<g class="st2">
		<path d="M769.8-46.8c0.1,1.5,0.1,2.6,0.1,3.2c0,1.8-0.2,2.8-0.5,3.1c-0.3,0.3-0.7,0.4-0.9,0.2c-0.2-0.2-0.3-1-0.3-2.5
			c0.1-3,0.1-5.1,0.1-6.4c-0.1-1.8,0-2.9,0.4-3.2c0.8-0.7,1.1,0.2,1.1,2.8C769.7-49.3,769.7-48.4,769.8-46.8z M773.8-45.9
			c0-1.5-0.1-2.6-0.1-3.2c0-1.8,0.2-2.8,0.5-3.1c0.3-0.3,0.7-0.4,0.9-0.2c0.2,0.2,0.3,1,0.3,2.5c-0.1,3-0.1,5.1-0.1,6.4
			c0.1,1.8,0,2.9-0.4,3.2c-0.7,0.7-1.1-0.2-1.2-2.8C773.9-43.4,773.8-44.3,773.8-45.9z"/>
		<path d="M774.5-34.1c2.8,0,5-0.1,6.6-0.1c1.7,0,4,0,6.9-0.1c2.4-0.2,3.7-0.3,4-0.3c0.6,0,0.8,0.9,0.7,2.8c0,2-0.7,3.7-2,5.1
			c-0.9,1-2.7,1.9-5.2,2.7c-3.4,1.2-8.3,1.9-14.7,1.9c-3.2,0-5.8-0.2-7.7-0.5c-4.2-0.7-7.5-1.9-9.7-3.6c-1.3-1-1.9-2.6-2-4.8
			c-0.1-1.8,0.1-2.9,0.4-3.2c0.1-0.2,5.8-0.1,17.1,0.2C769.3-34,771.1-34.1,774.5-34.1z M781.2-32.9c-0.6,0-1.9,0.1-3.8,0.2
			c-2,0.1-3.8,0.2-5.4,0.2c-12.3-0.4-18.4-0.4-18.6-0.1c-0.9,1.5-0.6,3.2,1.1,4.9c1.3,1.2,3.2,2.3,5.8,3.1c3.6,1.1,8.3,1.5,13.9,1.2
			c11.5-0.5,17.2-3.3,17.1-8.3c0-0.7-0.2-1.1-0.6-1.1H781.2z"/>
	</g>
	<g>
		<path class="st0" d="M892.6-75.7l12.8-10.7l5.8,15.7L926-76l-3.5,18l17.9,3.9l-9.9,16.3L942-26.4L924.2-18l3.1,16.2l-16.2-4.7
			L907,5.1c-2,5.1-2.1,4-5.1,1.4l-11-8.4L879.7,9.4L874-6.3l-16.5,2.9l4.2-14.5c0.5-1.6-0.4-3.4-2.1-3.9c0,0-0.1,0-0.1,0l-14.8-3.8
			l10.7-12.8l-10.7-12.8l15.7-5.8l-2.9-16.5l16.5,2.9l3.8-17.4L892.6-75.7z"/>
	</g>
	<g>
		<circle class="st1" cx="893.4" cy="-38.1" r="32.8"/>
	</g>
	<g class="st2">
		<path d="M900.8-46.1c1-0.2,3.1-0.7,6.4-1.5c1.6-0.4,2.5-0.6,2.6-0.5c0.6,0.1,0.8,0.4,0.6,1c-0.2,0.5-3,1.1-8.2,1.9
			c-3.8,0.6-6.1,1.1-6.7,1.4c-0.2,0.2,1.8,0.7,6.2,1.4c4.7,0.7,7.2,1.1,7.7,1.3c0.8,0.2,1.2,0.5,1.2,1c0,0.3-0.2,0.5-0.7,0.6
			c-0.4,0.1-0.7,0.1-1,0c-1-0.4-3.3-1-6.9-1.6c-5.3-1-8-1.5-8.2-1.5c-1.7,0-7.6,1.1-17.9,3.2c-0.8,0.2-1.5,0.3-2,0.3
			s-0.8-0.2-0.8-0.6c0-0.6,0.2-0.9,0.6-0.9c-0.2,0,2.5-0.4,8.2-1.2c7.7-1.1,11.3-1.8,10.5-2c-0.3-0.1-3.6-0.6-9.6-1.7
			c-1.6-0.3-3.2-0.5-4.8-0.7c-1.1-0.1-1.9-0.2-2.3-0.3c-1.4-0.2-2.2-0.4-2.4-0.6c-0.2-0.2-0.3-0.4-0.3-0.7c0-0.3,0.3-0.5,0.7-0.5
			c0.8,0.1,1.8,0.3,3,0.7c0.3,0.1,1.2,0.2,2.5,0.4c1.6,0.2,2.9,0.5,3.8,0.7c1.1,0.2,2.4,0.4,3.7,0.6c1.6,0.2,2.4,0.3,2.5,0.3
			c2.9,0.5,4.6,0.8,4.9,0.8C894.1-44.8,896.3-45.2,900.8-46.1z"/>
		<path d="M896.1-34.6c2.8,0,5-0.1,6.6-0.1c1.7,0,4,0,6.9-0.1c2.4-0.2,3.7-0.3,4-0.3c0.6,0,0.8,0.9,0.7,2.8c0,2-0.7,3.7-2,5.1
			c-0.9,1-2.7,1.9-5.2,2.7c-3.4,1.2-8.3,1.9-14.7,1.9c-3.2,0-5.8-0.2-7.7-0.5c-4.2-0.7-7.5-1.9-9.7-3.6c-1.3-1-1.9-2.6-2-4.8
			c-0.1-1.8,0.1-2.9,0.4-3.2c0.1-0.2,5.8-0.1,17.1,0.2C890.9-34.6,892.8-34.6,896.1-34.6z M902.8-33.4c-0.6,0-1.9,0.1-3.8,0.2
			c-2,0.1-3.8,0.2-5.4,0.2c-12.3-0.4-18.4-0.4-18.6-0.1c-0.9,1.5-0.6,3.2,1.1,4.9c1.3,1.2,3.2,2.3,5.8,3.1c3.6,1.1,8.3,1.5,13.9,1.2
			c11.5-0.5,17.2-3.3,17.1-8.3c0-0.7-0.2-1.1-0.6-1.1H902.8z"/>
	</g>
</g>
</svg>
